<?xml version="1.0" encoding="UTF-8"?>
<!-- Created with Inkscape (http://www.inkscape.org/) -->
<svg id="svg2465" width="50" height="50" version="1.1" viewBox="0 0 13 13" xmlns="http://www.w3.org/2000/svg">
 <g id="layer1" transform="translate(-89 -104)">
  <path id="path1169" d="m98 111a2.5 2.5 0 0 1-2.5 2.5 2.5 2.5 0 0 1-2.5-2.5 2.5 2.5 0 0 1 2.5-2.5 2.5 2.5 0 0 1 2.5 2.5zm-3.7 6.4-0.23-1.4c-0.42-0.12-0.74-0.26-1.1-0.45l-1.2 0.85-1.6-1.6 0.85-1.2c-0.17-0.34-0.34-0.77-0.45-1.1l-1.4-0.25-8e-3 -2.4 1.4-0.21c0.12-0.4 0.29-0.8 0.48-1.1l-0.82-1.2 1.7-1.7 1.2 0.82c0.25-0.13 0.77-0.34 1.1-0.45l0.24-1.4h2.3l0.24 1.4c0.4 0.14 0.74 0.29 1.1 0.48l1.2-0.82 1.6 1.7-0.82 1.2c0.15 0.34 0.34 0.77 0.45 1.1l1.4 0.24v2.3l-1.4 0.22c-0.12 0.42-0.26 0.74-0.45 1.1l0.85 1.2-1.6 1.6-1.2-0.85c-0.37 0.19-0.74 0.34-1.1 0.45l-0.24 1.4z" fill="#f00" fill-rule="evenodd" stroke="#fff" stroke-width=".43"/>
 </g>
</svg>
