<svg xmlns="http://www.w3.org/2000/svg" style="display: none;">
  <symbol id="Backseat-Bandits" viewBox="0 0 50 50">
    <path d="m19.2 42.14c0 2.27-1.83 4.1-4.1 4.1-2.27 0-4.1-1.83-4.1-4.1 0-2.27 1.83-4.1 4.1-4.1 2.27 0 4.1 1.83 4.1 4.1zm26.28-7.18c0 2.27-1.83 4.1-4.1 4.1-2.27 0-4.1-1.83-4.1-4.1 0-2.27 1.83-4.1 4.1-4.1 2.27 0 4.1 1.83 4.1 4.1zM4.94 43.57C4.19 42.83 2.75 37.87 3.17 37.51 3.64 37.12 37.59 28.14 37.9 28.32c0.56 0.35 0.33 0.79-0.96 1.93-1.61 1.42-2.27 2.79-2.28 4.81l-0.02 1.58-1.49 0.42c-3.86 1.09-11.4 3.07-11.71 3.07-0.19 0-0.49-0.37-0.68-0.84-0.85-2.05-3.34-3.54-5.91-3.52-3.62 0.02-6.34 2.75-6.34 6.37 0 1.64-0.04 1.68-1.68 1.94-1.01 0.16-1.29 0.08-1.88-0.51zM1.22 30.84c-1.4-5.2-1.39-5.93 0.08-6.59 0.52-0.24 9.1-2.58 19.07-5.23 19.01-5.04 20.22-5.28 22.44-4.36 1.34 0.56 2.86 1.98 3.55 3.33 0.66 1.29 1.78 5.02 1.57 5.22-0.09 0.09-2.15 0.69-4.58 1.35-4.22 1.14-4.43 1.17-4.69 0.65-0.35-0.73-1.19-0.53-1.17 0.28 0.02 0.53-0.24 0.72-1.46 1.06-2.5 0.71-33.26 8.91-33.42 8.91-0.08 0-0.72-2.08-1.4-4.62zm4.95 2.39c0.96-0.26 1.75-0.62 1.75-0.78 0-0.36-1.21-4.95-1.35-5.12-0.09-0.11-3.9 0.83-4.13 1.01-0.08 0.06 0.86 3.75 1.27 5.01 0.15 0.47 0.38 0.46 2.48-0.12zm4.66-1.27c1.2-0.33 2.39-0.66 2.67-0.74 0.45-0.14 0.42-0.38-0.23-2.81-0.39-1.47-0.75-2.7-0.79-2.74-0.12-0.12-4.8 1.2-5.02 1.42-0.14 0.14 1.01 5.47 1.18 5.47 0.01 0 0.99-0.26 2.19-0.59zm6.67-1.77c1.21-0.34 2.25-0.66 2.29-0.7 0.14-0.12-1.17-4.91-1.41-5.19-0.15-0.18-4.74 0.82-5.18 1.14-0.08 0.05 0.86 3.75 1.27 5 0.16 0.49 0.46 0.46 3.03-0.25zm5.92-1.58c1.53-0.35 2.26-0.66 2.26-0.96 0-0.23-0.28-1.46-0.63-2.71-0.46-1.65-0.76-2.29-1.09-2.28-0.51 0.01-4.69 1.06-4.82 1.21-0.23 0.27 1.43 5.5 1.7 5.39 0.17-0.06 1.34-0.35 2.58-0.65zm8.29-2.28c0.08-0.08-1.33-5.18-1.47-5.32-0.15-0.15-4.65 1.07-4.95 1.36-0.19 0.18 0.5 3.4 1.11 5.14 0.08 0.24 0.88 0.12 2.69-0.39 1.41-0.4 2.59-0.75 2.63-0.78zm-9.44-3.97c10.77-2.89 19.77-5.32 20.01-5.41 0.86-0.32-0.66-0.81-2.47-0.8-1.34 0.01-6 1.16-19.61 4.81-9.82 2.65-17.98 4.93-18.12 5.08-0.32 0.32-0.04 1.57 0.35 1.57 0.15 0 9.08-2.36 19.84-5.25zm13.2 3.03 1.78-0.46-0.73-2.67c-0.4-1.47-0.76-2.71-0.81-2.76-0.05-0.05-1.15 0.19-2.45 0.55-1.88 0.51-2.34 0.74-2.23 1.11 0.07 0.26 0.28 1.06 0.46 1.78 0.73 2.95 0.89 3.27 1.57 3.08 0.35-0.1 1.43-0.38 2.41-0.64zm10.38-2.73c0.77-0.02-0.62-3.75-1.77-4.78-0.62-0.55-0.66-0.55-3.69 0.25-1.68 0.45-3.13 0.93-3.22 1.06-0.12 0.2 0.58 3.25 1.18 5.1 0.07 0.22 1.27 0.01 3.7-0.65 1.98-0.54 3.69-0.98 3.8-0.98zm0.41 9.33c-1.12-1.69-2.96-2.66-5.2-2.74-1.38-0.05-1.86-0.17-1.92-0.52-0.06-0.35 0.68-0.66 3.2-1.33 1.81-0.48 3.31-0.86 3.34-0.85 0.21 0.14 1.75 6.58 1.57 6.58-0.13 0-0.57-0.52-0.99-1.15zm1.74-1.91c-1.06-3.97-1.07-4.08-0.21-4.08 0.63 0 0.76 0.25 1.38 2.48 0.82 2.99 0.83 3.26 0.17 4.07-0.5 0.63-0.53 0.58-1.35-2.47zM1.58 22.47C1.42 22.18 1.21 21.54 1.11 21.06 1 20.57 0.84 19.96 0.75 19.67c-0.08-0.28-0.02-0.51 0.15-0.51 0.16 0 0.51 0.71 0.76 1.58l0.46 1.58 1.37-0.4c0.76-0.22 8.32-2.25 16.8-4.51 8.49-2.27 15.47-4.16 15.51-4.2 0.04-0.04-0.12-0.72-0.35-1.5-0.25-0.81-0.32-1.54-0.17-1.67 0.29-0.29 1.29 2.89 1.09 3.42-0.07 0.19-7.65 2.36-16.84 4.81-9.19 2.46-16.92 4.52-17.19 4.6-0.27 0.07-0.6-0.1-0.76-0.4zM3.42 19.67C2.99 18.36 2.1 14.69 2.1 14.25c0-0.4 0.38-0.65 1.47-0.95 0.81-0.23 1.48-0.54 1.48-0.7 0.02-0.74 0.61-1.26 1.76-1.56 1.11-0.29 1.3-0.26 1.71 0.23 0.45 0.53 0.55 0.54 2.28 0.1 1.05-0.26 1.91-0.35 2.05-0.2 0.13 0.15 0.57 1.54 0.98 3.1 0.68 2.61 0.7 2.86 0.25 3.09-0.74 0.38-9.25 2.66-9.95 2.66-0.34 0-0.66-0.16-0.73-0.36zm4.8-7.83c0-0.14-0.23-0.25-0.51-0.25-0.96 0.01-1.82 0.35-1.82 0.73 0 0.29 0.26 0.31 1.17 0.07 0.64-0.16 1.17-0.41 1.17-0.56zm7.42 3.9c-0.25-0.6-0.42-1.67-0.36-2.4 0.08-1.25 0.16-1.36 1.47-2.05 0.76-0.4 1.38-0.89 1.38-1.09 0-0.47 1.71-1.52 2.48-1.52 0.32 0 0.86 0.16 1.2 0.36 0.34 0.2 1.17 0.66 1.83 1.03 1.5 0.83 2.24 2.18 1.81 3.32-0.26 0.7-0.76 0.93-4.49 2.11-2.3 0.73-4.34 1.33-4.52 1.33-0.18 0-0.54-0.49-0.79-1.08zM26.71 11.81C26.29 11.44 25.7 10.58 25.38 9.89l-0.56-1.27 0.7 0.17c0.42 0.11 1.25-0.07 2.08-0.44 1-0.45 1.69-0.56 2.5-0.43l1.13 0.18V6.06c0-1.12 0.1-2.05 0.22-2.05 0.12 0 0.51-0.08 0.87-0.18 0.48-0.13 0.66-0.05 0.66 0.29 0 0.27 0.37 0.56 0.93 0.7l0.93 0.25-1.07 0.86c-1.23 0.97-1.29 1.24-0.55 2.2 0.91 1.19 0.95 1.65 0.18 2.56-1.43 1.7-5.26 2.35-6.68 1.13zM20.45 8.22c0-0.46 0.65-1.3 1.01-1.3 0.81 0 0.74 0.56-0.13 1.01-0.48 0.25-0.88 0.38-0.88 0.28zm-3.53-0.71-0.69-0.57 0.81-0.01c0.82-0.01 2.83 0.7 2.83 0.99 0 0.43-2.33 0.11-2.95-0.41z" stroke-width="900"/>
  </symbol>
  <symbol id="Dowell-Consulting" viewBox="0 0 50 50">
    <g transform="matrix(0.17064556 0 0 0.17064556 -1.193666 -1.0854017)">
      <path d="M214 296.25C198.08 291.52 184.47 282 175.92 269.59l-4.53-6.57-48.69-0.73c-43.55-0.63-49.8-1-59.12-3.47-33.27-8.8-54.18-33.49-56.4-66.61-2.82-41.95 27.4-77.54 65.83-77.54 13.04 0 22.68 2.47 36.28 9.31 5.86 2.94 11.26 5.35 12.01 5.35 1.75 0 1.81-90.45 0.07-98C119.62 23.74 114.78 20 106.7 20 98.18 20 96 19.03 96 15.25c0-3.69-0.49-3.58 29.73-6.65 16.34-1.66 21.5-1.79 22.98-0.56 1.63 1.35 1.96 18.95 2.27 118.68 0.35 116.63 0.37 117.11 3.16 120.84 2.69 3.6 10.38 7.04 12.04 5.38 0.44-0.44 0.04-3.92-0.87-7.74-2.34-9.75-2.07-29.54 0.55-39.87 3.81-15.06 9.59-24.96 21.39-36.67 21.7-21.53 45.99-26.93 78.44-17.42 6.43 1.88 12.64 3.42 13.8 3.42 1.16 0 3.83-1.84 5.94-4.1 2.56-2.74 4.83-3.96 6.87-3.67l3.04 0.43V172.67 198l-3.53 0.41c-3.18 0.37-3.76-0.28-5.78-6.35-2.91-8.77-11.42-21.44-17.52-26.1-7.88-6.01-17.3-9-28.5-9.05-21.04-0.09-37.07 12.65-44.13 35.08-3.24 10.31-3.87 31.41-1.27 42.69 4.31 18.69 18.59 39 32.63 46.41 5.97 3.15 8.27 3.57 19.44 3.57 11.81 0 13.35-0.33 22.81-4.84 6.75-3.22 13.26-7.79 19.47-13.64 5.13-4.84 9.72-8.41 10.19-7.93 0.48 0.48 0.86 2.61 0.86 4.75 0 8.52-18.2 24.51-35.5 31.21-12.24 4.73-37.94 5.78-50.5 2.05zm-99.58-46.49c8.03-5.89 8.24-7.33 8.24-57.52v-45.75l-7.3-7.3C99.97 123.79 79.98 119.13 63.63 127.13 47.35 135.09 37.4 155.2 37.35 180.22c-0.09 44.71 26.04 74.48 63.73 72.65 7.04-0.34 10.75-1.2 13.33-3.1z" fill="#6f89c7"/>
      <path d="m216.97 295.25c-16.73-4.05-29.24-12.94-43.12-30.62l-4.15-5.29-50.52-0.74C75.4 257.95 67.69 257.53 61.33 255.44 32.6 246.01 14.38 225.36 10.49 197.82 6.75 171.38 16.66 146.01 36.96 130.03 49 120.55 56.55 118.13 74 118.12c12.82 0 15.83 0.45 23.9 3.63 5.08 2 12.19 5.45 15.8 7.68 11.56 7.11 10.91 9.64 11.38-44.12 0.27-30.89-0.1-49.68-1.06-54.13-1.98-9.24-5.56-12.29-16.53-14.11-4.88-0.81-8.59-1.75-8.24-2.09 0.98-0.99 46.42-5.6 47.65-4.84 0.6 0.38 1.1 52.57 1.1 115.98 0 97.33 0.3 116.01 1.92 119.89 2.21 5.3 9.03 9.97 14.55 9.98 3.71 0.01 3.79-0.13 3.02-5.66-2.03-14.54-2.43-33.39-0.87-41.31 5.04-25.64 25.16-49.07 49.15-57.24 12.91-4.4 32.5-4.11 48.58 0.71 14.85 4.46 16.59 4.4 21.83-0.67 2.71-2.63 5.1-3.87 6.43-3.36 1.85 0.71 2.07 3.87 1.75 24.51-0.34 21.93-0.55 23.7-2.8 23.7-1.73 0-3.13-1.97-4.82-6.77-14.18-40.26-64.01-47.52-86.09-12.54-6.76 10.71-9.14 20.66-9.08 37.98 0.05 13.56 0.59 17.63 3.54 26.67 4.19 12.8 11.93 25.03 21 33.19 19.8 17.8 49.44 14.91 73.6-7.17 4.02-3.68 7.68-6.69 8.13-6.69 0.45 0 0.81 1.28 0.81 2.84 0 3.82-16.11 19.45-24.93 24.19-15.28 8.21-39.28 11.12-56.77 6.88zM116.3 252.23c8.69-5.37 9.03-7.65 9.03-60.36v-46.75l-7.93-7.93c-5.13-5.13-11.13-9.45-17-12.23-7.86-3.72-10.49-4.3-19.74-4.3-8.99 0-11.86 0.59-18.3 3.75-17.71 8.7-27.64 29.01-27.68 56.66-0.05 29.61 12.11 55.08 31.82 66.64 14.47 8.49 39.67 10.78 49.79 4.52z" fill="#5f7cc1"/>
      <path d="m217.88 295.35c-10.38-2.26-22.17-8.23-30.15-15.27-7.98-7.04-17.71-20.9-18.84-26.84-0.48-2.52-1.45-7.28-2.16-10.58-3.5-16.33-0.18-40.56 7.54-55.1 5.26-9.9 23.25-27.44 32.88-32.06 12.64-6.06 25.96-8.2 39.51-6.37 6.23 0.84 15.14 2.73 19.79 4.19 11.97 3.77 15.6 3.49 20.19-1.52 2.47-2.7 4.58-3.89 5.96-3.36 1.87 0.72 2.09 3.8 1.77 24.5-0.32 20.79-0.63 23.73-2.57 24.1-1.54 0.3-2.7-1.11-3.85-4.65-2.91-8.98-6.76-15.38-13.61-22.63-20.54-21.71-54.43-19.53-71.72 4.62-23.39 32.66-9.97 91.29 24.8 108.41 8.07 3.97 9.13 4.16 21.06 3.64 11.25-0.49 13.62-1.07 22.72-5.57 5.59-2.76 13.68-8.28 18-12.28 4.31-3.99 8.21-7.26 8.66-7.26 0.45 0 0.82 1.22 0.82 2.71 0 4.46-16.78 20.04-26.95 25.02-15.98 7.82-36.01 10.16-53.83 6.29z" fill="#505054"/>
    </g>
  </symbol>
  <symbol id="Dowell-Media" viewBox="0 0 50 50">
    <g transform="matrix(0.10013557 0 0 0.10013557 -0.04156099 -0.03222836)">
      <path d="m207.5 497.94c-9.07-4.25-13.51-14.69-10.31-24.25 4.51-13.47 19.57-18.15 29.18-9.08 4.98 4.7 6.91 9.72 6.47 16.72-0.88 13.74-13.62 22.1-25.33 16.61zm103.79-14.16c-6.17-3.14-9.67-8.8-10.15-16.42-0.47-7.35 1.65-12.44 7.21-17.32 9.6-8.43 24.89-2.9 28.59 10.34 4.54 16.2-11.34 30.69-25.65 23.41zM110.92 459.81c-7.04-2.12-13.75-11.14-13.76-18.49-0.01-7.62 4.72-15.75 11.07-19.03 4-2.07 11.27-1.81 15.92 0.57 14.83 7.56 12.29 32.43-3.76 36.89-4.32 1.2-5.7 1.21-9.48 0.07zM398.32 418.96c-7.84-3.56-12.02-11.24-11.23-20.66 1.37-16.53 20.68-23.39 31.42-11.16 8.79 10.01 6.01 25.57-5.63 31.46-5.36 2.71-9.18 2.81-14.55 0.37zM35.57 374.96c-4.4-2.68-8.01-7.77-9.38-13.23-2.46-9.79 4.11-21.17 13.7-23.72 9.29-2.48 19.25 3.75 21.82 13.66 2.46 9.47-1.69 19.63-9.72 23.81-3.96 2.06-12.65 1.79-16.42-0.51zM12.72 269.48C1.97 265.68-2.77 252.43 2.7 241.45c5.03-10.09 16.34-13.52 25.34-7.69 13.94 9.04 11.03 31.83-4.61 36.18-4.73 1.31-5.83 1.27-10.71-0.46zm27.74-105.36c-15.12-3.64-19.24-26.05-6.56-35.72 5.26-4.01 13.69-4.4 19.65-0.91 7.66 4.49 11.42 14.97 8.49 23.71-3.18 9.49-12.54 15.1-21.58 12.92zM399.36 113.8c-7.17-2.8-11.53-8.17-12.9-15.84-1.49-8.37 4.58-19.38 12.03-21.84 12.48-4.12 24.34 4.86 24.34 18.42 0 9.21-3.57 15.03-11.49 18.69-4.55 2.11-7.68 2.25-11.99 0.57zM108.92 78.17c-7.9-2.38-13.15-9.93-13.21-18.99-0.09-14.64 13.96-24.33 26.23-18.07 10.58 5.4 13.72 21.81 5.88 30.74-5.29 6.02-12.22 8.34-18.9 6.33zm200.02-28.23c-9.32-4.99-13.16-17.64-8.25-27.23 2.49-4.87 4.7-6.94 9.51-8.95 12.53-5.24 25.03 4.03 25.05 18.57 0.02 14.52-14.23 24.06-26.3 17.61zM205.54 38.31c-12.86-5.94-15.42-23.41-4.87-33.26 9.27-8.66 23.63-4.96 28.8 7.41 4.09 9.79-0.41 21.55-9.9 25.86-5.11 2.32-8.98 2.32-14.03-0.01z" fill="#15cfd4"/>
      <path d="m220.42 428.85c-2.99-1.21-6.22-5.64-6.95-9.53-1.85-9.84 6.85-18.57 15.31-15.37 7.3 2.77 10.55 10.19 7.71 17.63-2.61 6.84-9.47 9.94-16.06 7.28zm75.61-12.75c-4.87-2.5-7.23-6.17-7.31-11.36-0.08-5.48 2.38-10.39 6.2-12.36 5.88-3.04 11.85-1.37 15.74 4.39 7.12 10.57-3.75 24.92-14.64 19.33zM150.48 402.88c-8.15-3.29-9.46-16.39-2.24-22.47 4.63-3.9 11.01-3.57 15.36 0.79 10.11 10.11-0.08 26.95-13.12 21.68zM356.36 370.55c-3.85-3.85-4.95-7.2-4.01-12.2 2.35-12.55 19.37-13.94 23.34-1.91 1.8 5.43 0.7 10.14-3.29 14.13-2.82 2.82-4.03 3.32-8.01 3.32-3.99 0-5.2-0.5-8.03-3.34zM94.66 337.5c-5.57-5.9-5.57-13.23 0-19.14 2.77-2.94 3.88-3.42 7.87-3.42 3.89 0 5.24 0.55 8.37 3.42 3.53 3.24 3.73 3.74 3.73 9.57 0 5.82-0.2 6.33-3.73 9.57-3.13 2.87-4.48 3.42-8.37 3.42-3.99 0-5.09-0.48-7.87-3.42zM74.1 257.73c-8.85-5.97-6.73-20.32 3.51-23.69 6.32-2.09 13.72 3.1 15.13 10.62 1.39 7.38-4.88 15.34-12.08 15.34-1.76 0-4.71-1.02-6.56-2.26zm22.8-74.42c-3.96-2.45-6.09-7.56-5.46-13.09 1-8.84 9.89-13.67 17.73-9.62 7.71 3.99 8.05 17.9 0.55 22.81-3.23 2.12-9.31 2.07-12.82-0.11zM359.2 148.19c-12.26-7.69-4.76-28.22 8.82-24.15 5.81 1.74 8.86 6.1 8.86 12.66 0 4.74-0.42 5.89-3.25 8.98-4.16 4.54-9.68 5.5-14.44 2.52zM146.26 120.27c-5.76-5.38-5.64-14.48 0.26-19.88 7.96-7.3 19.53-1.65 19.55 9.54 0.01 8.36-4.41 13.19-12.1 13.19-3.75 0-5.26-0.56-7.71-2.85zm151.03-16.26c-10.13-2.85-11.75-19.49-2.36-24.34 10.96-5.67 21.95 6.37 16.43 18.01-2.61 5.5-8.16 8-14.07 6.33zM213.8 88.59c-6.13-3.33-7.92-14.7-3.2-20.31 5.82-6.92 16.67-5.53 20.05 2.56 2 4.78 1.67 9.57-0.92 13.4-3.87 5.75-10.18 7.47-15.94 4.34z" fill="#046eda"/>
      <path d="m324.08 310.25c-6.76-3.33-10.41-12.68-8.13-20.83 1.53-5.45 7.33-11.05 12.46-12.01 5.09-0.96 11.86 1.84 15.27 6.32 2.39 3.14 2.73 4.47 2.73 10.83 0 5.79-0.42 7.82-2.09 10.07-5.15 6.95-13.08 9.15-20.24 5.62zm44.23-1.14c-4-1.56-8.62-3.69-8.6-7.66 0.35-58.44 0.35-58.44 0.35-58.44 0.39-64.44 0.17-62.24 6.72-66.65 3.97-2.67 10.71-3.05 14.99-0.84 4.52 2.34 12.24 11.5 26.74 31.76 15.77 22.03 18.84 25.73 21.34 25.73 2.2 0 5.16-3.63 19.86-24.26 13.78-19.34 22.29-30.14 25.36-32.15 3.89-2.55 11.09-3.03 16.17-1.09 8.3 3.17 8 0.68 8 66.99 0 53.56-0.13 58.19-1.77 61.18-0.97 1.78-2.77 3.88-4 4.67-5.54 3.57-15.11 2.72-20.37-1.8l-2.69-2.31-0.71-33.7c-0.49-23.1-1.07-34.06-1.85-34.85-1.86-1.86-4.04 0.23-11.37 10.9-15.76 22.98-22.25 29.45-28.09 27.98-4.24-1.06-10.84-7.83-21.47-22.01-10.76-14.35-13.33-17.07-15.39-16.28-1.91 0.73-2.68 12.15-2.69 40.17-0.01 24.51-0.71 29.58-4.42 32.01-3.85 2.52-11.46 2.81-16.14 0.62zm-161.89 0.18c-1.17-0.25-3.19-1.59-4.5-2.98l-2.37-2.53v-60.11c0-58.85 0.04-60.19 2.05-63.61 3.38-5.76 4.46-5.97 31.19-5.98 27.68-0.02 29.81 0.4 42.54 8.38 16.25 10.18 28.59 25.86 32.11 40.79 1.98 8.42 1.99 30.44 0.02 38.04-4.56 17.52-19.56 35.34-37.33 44.37-10.25 6.46-22.84 3.86-34.51 3.93-14.89 0.08-28.03-0.05-29.19-0.3zm48.95-31.82c10.12-2.64 17.68-9.17 22.5-19.47 2.22-4.75 2.58-6.85 2.59-15.49 0.01-8.77-0.31-10.69-2.67-15.72-5.09-10.86-16.39-19.41-28.78-21.76-6.17-1.17-15.01-0.42-17.64 1.51-2.47 1.81-3.2 11.15-3.27 41.99-0.08 32.17-0.77 30.44 12.27 30.44 5.07 0 11.83-0.68 15.01-1.51z" fill="#032a91"/>
    </g>
  </symbol>
  <symbol id="Kobe-JET" viewBox="0 0 50 50"><path d="m17.93 43.18c-3.74-4.22-5.69-9.33-5.69-14.89 0-4.37 1.2-8.43 3.59-12.12 0.35-0.55 0.61-1.04 0.58-1.1-0.09-0.14-1.2-0.14-2.37 0.01-2.64 0.32-5.2 1.44-7.09 3.09-0.38 0.33-0.74 0.6-0.81 0.6C5.96 18.77 0 12.78 0 12.59 0 12.27 2.4 10.33 4.01 9.34 7.72 7.08 11.88 5.99 16.29 6.14c2.75 0.09 5 0.55 7.45 1.52l1.26 0.5 1.26-0.5c2.45-0.97 4.69-1.43 7.45-1.52 4.39-0.15 8.48 0.91 12.17 3.14 1.59 0.96 4.12 2.99 4.12 3.31 0 0.09-1.38 1.54-3.06 3.22l-3.07 3.07-0.76-0.66c-1.98-1.72-4.48-2.82-7.15-3.14-1.17-0.14-2.28-0.15-2.37-0.01-0.04 0.06 0.22 0.55 0.58 1.1 2.38 3.68 3.59 7.75 3.59 12.12 0 5.56-1.95 10.67-5.69 14.89-0.34 0.38-0.69 0.69-0.77 0.69-0.09 0-1.51-1.34-3.16-2.98-1.65-1.64-3.06-2.98-3.14-2.98-0.08 0-1.49 1.34-3.13 2.98-1.64 1.64-3.06 2.98-3.15 2.98-0.09 0-0.44-0.31-0.78-0.69zm7.64-6.07c1.59-1.85 2.58-3.87 3.09-6.3 0.25-1.17 0.25-3.81 0-4.99-0.52-2.48-1.83-5.08-3.26-6.49l-0.41-0.4-0.41 0.4c-1.04 1.01-2.27 3.12-2.82 4.81-0.47 1.45-0.62 2.46-0.62 4.19 0 2.31 0.43 4.12 1.45 6.1 0.69 1.34 2.08 3.16 2.4 3.16 0.09 0 0.34-0.22 0.57-0.49z" style="fill:#fd0303;stroke-width:0.1"/>
  </symbol>
  <symbol id="Timbers-Space" viewBox="0 0 50 50">
    <g transform="matrix(0.01062565 0 0 -0.01062565 -1.2768763 51.711712)">
      <path d="m2548 4865c-3-3-70-6-149-7-79-1-149-5-155-10-6-5-37-9-68-11-31-1-56-5-56-8 0-3-6-6-12-7-35-3-189-34-230-47-25-7-48-12-50-9-6 5-113-32-173-60-27-14-66-32-86-41-20-9-45-24-56-33-10-9-25-18-33-20-8-2-26-11-40-20-14-9-28-17-32-17-4 0-16-7-27-16-10-10-28-20-40-24-12-3-21-11-21-16 0-5-5-9-12-9-19 0-78-44-78-57 0-7-4-13-10-13-5 0-10 7-10 15 0 8-4 15-10 15-5 0-10-6-10-14 0-8-21-25-48-38-26-13-51-28-57-34-17-18-64-44-79-44-8 0-18-9-21-20-3-11-14-20-23-20-9-1-28-14-42-30-13-17-29-30-35-30-5 0-23-13-40-30-16-16-66-65-110-108-90-89-125-127-175-192-19-25-42-52-52-61-10-9-18-19-18-23 0-3-15-28-33-54-47-67-77-121-77-137 0-7-4-15-9-17-14-5-112-216-118-254-3-19-9-34-14-34-4 0-13-26-19-57-6-32-15-74-20-93-5-19-12-48-15-64-13-63-1-557 16-656 5-30 13-91 19-134 5-43 14-84 19-90 5-6 11-33 14-59 3-26 9-53 15-60 5-7 10-19 10-27 3-47 16-110 22-110 4 0 13-25 20-55 7-31 17-58 22-61 4-3 8-13 8-23 0-9 18-54 40-99 22-44 40-86 40-92 0-5 5-10 10-10 6 0 10-5 10-12 0-48 292-388 333-388 10 0 33-16 50-35 17-19 35-35 40-35 5 0 28-16 51-35 24-19 48-35 55-35 6 0 11-4 11-8 0-14 146-96 240-136 53-22 127-54 155-66 11-5 43-16 72-25 28-9 61-25 74-35 12-11 26-20 31-20 5 0 34-11 64-25 30-14 60-25 67-25 7 0 17-4 23-8 10-10 104-46 119-47 6 0 21-7 35-16 14-9 38-20 53-23 24-6 29-3 42 26 7 18 25 46 39 62 13 17 23 33 20 38-3 4 0 8 6 8 16 0 5 126-13 154-8 12-32 30-53 41-22 11-42 24-45 28-3 5-19 7-35 5-19-2-28 1-26 10 1 7-10 17-25 23-30 11-64 28-156 78-31 17-63 31-71 31-7 0-25 9-39 20-14 11-35 20-47 20-12 0-31 11-42 25-22 29-85 62-134 71-18 3-43 15-55 25-12 10-30 19-40 19-10 0-20 4-23 9-4 5-26 19-50 31-24 11-56 32-71 46-15 14-34 23-41 20-8-3-13 0-11 7 1 7-4 11-10 10-7-2-13 3-13 10 0 7-11 21-25 31-14 11-37 30-51 43-14 12-29 23-35 23-5 0-9 5-9 11 0 6-19 29-42 53-45 44-63 65-90 107-9 14-23 33-30 40-20 22-38 57-38 74 0 8-4 15-10 15-8 0-17 17-60 115-5 11-21 61-36 110-16 50-31 92-34 95-12 11-35 108-70 305-16 87-18 631-3 675 7 19 14 53 18 75 8 60 43 167 76 235 16 33 29 63 29 66 0 7 130 217 139 224 3 3 25 30 48 60 23 30 60 75 82 99 22 24 41 46 43 50 2 3 35 33 73 66 39 33 75 64 81 70 7 5 24 19 40 30 15 11 39 29 53 41 14 12 58 41 96 65 39 24 72 47 73 51 2 4 8 8 14 8 6 0 26 11 44 25 18 14 37 25 43 25 5 0 16 6 23 13 18 16 46 34 78 49 14 7 27 15 30 18 10 10 239 120 250 120 7 0 26 6 43 14 77 35 224 76 343 97 113 20 160 22 384 21 353-2 487-27 715-132 11-5 38-21 60-35 22-13 49-30 60-35 11-6 38-22 60-35 22-14 49-29 60-34 22-10 36-22 204-179 160-149 231-221 265-267 16-22 36-47 43-55 20-22 123-196 123-208 0-6 4-12 8-14 12-5 57-105 86-189 29-86 44-164 65-344 9-75 8-327-2-360-3-11-13-42-21-70-18-57-22-120-6-95 7 11 12 12 21 3 8-8 7-19-5-44-8-19-17-45-20-59-2-14-5-29-7-35-1-5 1-18 5-27 5-11-6-49-29-105-52-125-68-153-83-153-12 0-12 3-2 15 7 8 9 15 4 15-5 0 0 7 10 15 14 11 17 18 9 26-12 12-13 11-50-59-25-47-28-56-14-47 5 3 12 1 16-5 4-6-10-8-35-6-42 3-60-11-60-48 0-8-13-29-30-46-16-17-30-36-30-43 0-7-16-32-35-56-19-24-33-46-31-48 2-3-3-13-12-22-26-27-52-61-52-66 0-3-18-31-40-62-22-32-40-64-40-70 0-7-5-13-11-13-6 0-9-9-6-20 3-13-1-21-14-25-10-4-19-13-19-21 0-8-7-17-15-20-8-4-15-12-15-20 0-7-25-40-55-71-30-32-58-66-61-75-3-10-16-21-30-24-15-4-24-13-24-25 0-11-24-44-52-75-114-120-335-340-368-366-73-57-88-68-94-68-10 0-34-20-69-57-17-18-36-33-42-33-7 0-30-13-51-28-40-29-78-48-152-77-24-10-40-20-37-24 10-10 86-10 79 0-3 5-1 9 5 9 5 0 13-5 16-10 11-17 45-11 45 8 0 13 2 14 9 3 6-9 18-11 40-6 30 6 31 8 16 25-15 16-15 18 1 24 9 3 22 2 29-4 9-8 17-7 26 3 8 7 19 14 24 15 6 1 17 8 26 16 12 9 21 11 34 3 10-5 15-5 12 0-8 13 7 34 29 37 10 2 18 9 17 15-4 15 24 14 31-1 3-7 4-4 3 7-2 20-2 20 61 11 19-3 23 0 19 15-6 21 18 27 27 7 5-10 7-10 12 0 3 6 10 9 15 6 11-6 89 43 89 56 0 4 9 10 20 13 12 3 20 14 20 26 0 12 6 21 14 21 8 0 16 5 18 10 2 6 19 12 38 13 44 3 108 47 193 131 36 37 71 66 79 66 7 0 19 9 26 20 7 11 18 20 25 20 7 0 20 8 28 17 43 48 148 143 157 143 6 0 9 6 6 13-2 7 6 25 20 40 13 14 26 32 29 39 3 9 10 6 22-9 9-13 25-23 35-23 10 0 21-6 23-12 3-8 6-6 6 5 1 9 7 17 15 17 20 0 32 40 15 51-19 12-39 11-39-1 0-5-11-10-25-10-30 0-32 19-4 43 20 18 22 18 41 1 16-16 21-16 28-4 6 8 10 11 10 7 0-4 10-2 22 4 13 7 38 14 57 16 36 4 107 56 117 86 3 11 12 16 20 13 9-3 12-1 9 4-3 6 0 10 8 10 8 0 18 7 21 16 9 24 8 26-15 13-15-8-24-8-32 0-8 8-7 11 5 11 24 0 40 24 26 38-9 9-8 12 6 12 9 0 14 5 11 10-3 6 3 10 15 10 19 0 20 1 6 16-20 20-21 30-1 14 12-10 18-10 32 1 30 24 38 33 50 62 7 15 17 27 22 27 13 0 20 37 9 48-6 6 0 17 17 31 17 12 25 27 21 36-3 8-1 15 3 15 13 0 52 70 46 81-4 5-2 9 3 9 13 0 24 47 17 70-3 10-14 21-23 23-15 4-15 5 1 6 10 0 16 5 12 10-3 5 4 12 15 16 11 3 20 13 20 22 0 8 10 28 21 45 16 22 19 32 10 38-16 9-15 17 4 37 13 13 14 18 3 24-10 7-10 9 0 9 6 0 12 6 12 14 0 7 6 19 14 25 18 15 28 125 16 176-5 21-5 44-1 50 9 11 10 105 2 105-4 0-5 20-3 45 3 38 2 44-12 39-12-5-16 0-16 20 0 14 4 26 9 26 6 0 9 9 8 20-1 11-6 20-13 20-7 0-10 16-7 47 5 59-13 109-33 92-8-6-14-8-15-3 0 5-2 17-4 27-2 11 5 22 18 28 20 8 19 9-5 4-21-4-27-1-26 12 1 10-2 28-6 41-6 16-3 22 8 22 11 0 16 9 16 26 0 22-3 24-14 15-21-18-63 24-46 45 7 7 10 21 6 29-3 8-1 15 3 15 5 0 12 7 15 16 3 8 2 13-3 10-18-12-34 24-28 64 4 35 3 40-11 36-10-3-24-1-31 4-12 7-10 11 12 21 25 11 25 13 11 40-8 16-19 29-23 29-5 0-12 14-16 31-5 24-11 30-26 26-19-5-44 15-32 27 14 13 12 44-2 50-9 3-15 19-15 41 0 32-2 35-24 31-22-4-24-1-22 29 3 28-2 39-26 57-36 27-60 71-52 95 5 15 4 16-5 3-7-10-11-11-11-2 0 6-7 12-15 12-8 0-15 6-15 14 0 8-18 33-40 55-22 22-40 46-40 53 0 10-2 10-9-1-11-17-31-6-31 18 0 10-11 26-25 35-14 9-25 14-25 11 0-6-16 6-48 36-9 8-32 26-50 38-18 13-53 42-76 65-24 22-55 50-70 61-15 11-43 35-64 52-20 18-42 33-49 33-6 0-18 6-25 14-8 7-27 20-44 29-16 8-38 24-48 36-11 12-27 21-37 21-10 0-24 8-31 18-20 27-83 72-102 72-16 0-56 19-66 31-8 10-101 49-116 49-8 0-14 4-14 9 0 5-26 15-57 21-32 7-65 15-73 20-9 4-56 15-105 24-50 10-101 20-115 23-43 10-110 14-250 16-74 1-138 5-141 9-3 5-8 6-11 3z"/>
      <path d="m2354 4606c-3-8 0-34 7-57 7-24 14-48 14-54 0-5 9-23 19-38 25-37 36-175 15-188-10-6-10-9-2-9 15 0 7-117-9-137-5-6-6-29-3-50 4-21 9-58 11-82 2-24 6-53 10-63 4-13-2-21-19-27-27-11-270-61-274-57-1 1-4 36-6 78-3 87-1 83-117 164-47 32-89 64-93 71-5 8-22 28-39 45-22 22-29 26-24 12 3-10 15-49 26-85 11-36 33-84 49-106 21-29 31-57 36-99 4-33 8-69 10-82 4-24-4-22-38 7-17 15-18 14-11-14 14-59 24-75 82-133l59-59 2-119 2-120-35-12c-19-7-44-15-55-17-11-2-68-17-126-34l-107-31-30 22c-27 19-29 19-19 2 7-10 20-32 30-49 25-42 95-78 152-78 41 1 46-2 42-18-3-11-9-19-14-19-5 0-9-6-9-14 0-8-8-17-18-20-10-4-29-24-41-46-12-22-26-40-30-40-5 0-29-18-53-40-49-43-148-99-219-124-35-12-39-15-18-16 14 0 29-3 33-7 4-4 25-6 46-4 25 1 40-2 40-9 0-14-51-104-62-108-4-2-8-10-8-18 0-15-76-117-91-122-5-2-9-12-9-23 0-10-5-19-11-19-6 0-8-7-5-16 4-11 2-15-8-11-9 4-13 1-10-7 2-7-14-29-36-50-35-33-43-36-57-24-14 11-16 11-11-3 4-9-4-28-19-45-13-16-22-23-18-16 3 6 1 12-4 12-6 0-11-4-11-10 0-5-12-12-27-16-45-9-83-26-83-35 0-5-7-9-15-9-9 0-18-7-21-15-4-8-15-15-25-15-10 0-19-4-19-10 0-5-11-12-25-16-14-3-25-13-25-21 0-8-6-13-12-10-7 2-29-5-49-16l-37-20-36 28c-20 15-36 23-36 17 0-6 4-12 9-14 6-1 11-23 12-48 2-25 11-56 21-69 10-13 18-31 18-40 0-23 85-109 115-117 14-3 25-10 25-15 0-5 15-9 33-9 22 0 37 7 47 21 8 12 21 27 28 35 6 7 12 18 12 24 0 7 19 30 42 51 24 22 37 39 30 39-19 0-14 18 8 25 11 3 20 11 20 16 0 5 12 28 27 52 24 36 40 58 94 125 6 7 15 29 20 48 6 19 14 34 19 34 6 0 10 9 10 19 0 10 7 21 15 25 8 3 15 16 15 29 0 14 7 30 15 37 8 7 15 19 15 26 0 8 4 22 9 32 5 9 17 35 27 57 11 22 22 42 27 43 4 2 7 9 7 15 0 7 8 28 18 47 11 19 25 56 32 82 8 26 17 45 21 42 4-2 10 0 14 6 3 5 16 10 28 10 12 0 36 7 52 16 17 9 42 23 58 31 15 8 27 19 27 24 0 6 4 8 9 5 5-3 20 5 32 19 13 13 27 25 31 25 8 0 83 66 116 103 31 33 52 35 52 5-1-55-19-161-29-167-11-7-9-49 3-69 4-7 2-12-4-12-6 0-8-5-3-12 4-7 8-17 8-23 2-19 18-69 31-93 11-22 9-29-28-76-22-28-54-62-71-76-16-14-110-104-208-201-155-153-309-279-340-279-5 0-9-4-9-8 0-4-21-14-47-21-41-10-45-14-30-22 12-7 28-7 49 0 17 6 41 11 53 11 23 0 96 26 171 61 23 10 48 19 55 19 8 0 21 9 29 20 8 11 25 20 38 20 21 0 107 51 123 74 4 5 15 6 24 2 22-8 123 73 216 172 92 100 103 113 135 173 16 30 35 58 42 62 6 4 12 15 12 22 0 8 6 15 13 15 6 0 23 17 37 38 14 20 27 39 31 42 3 3 8 12 12 22 7 20 61 33 79 19 58-46 98-86 98-97 0-8 6-14 13-14 8 0 7-4-3-10-10-7-11-10-2-10 7 0 63-51 125-113 127-128 185-178 237-204 19-10 57-34 85-55 88-64 164-98 230-102 33-2 74-10 90-16 45-18 136-39 183-41 23-2 42-7 42-11 0-9 74-11 118-2 26 5 30 10 26 31-6 34-50 115-72 134-39 34-172 94-317 143-44 15-104 38-132 52-29 13-64 26-78 30-14 3-25 9-25 14 0 4-18 12-41 19-43 13-196 90-241 122-14 11-29 19-32 19-4 0-21 13-39 30l-33 30 3 147c2 82 5 164 6 183 2 19 0 45-5 58-4 13-4 22 3 22 6 0 8 23 5 60-3 33-2 60 2 60 4 0 19-19 34-42 69-107 87-129 275-315 123-122 171-163 196-168 17-3 41-10 52-15 11-4 47-17 80-28 125-43 145-38 145 32 0 44-21 83-61 115-33 26-179 101-196 101-7 0-13 5-13 10 0 6-8 10-18 10-10 0-23 5-29 11-13 13-45 32-89 52-17 8-49 28-71 43-23 16-51 36-63 44-46 30-170 155-170 171 0 9-8 20-17 24-29 11 130 64 194 65 41 0 60 29 42 63-24 44-90 81-139 78-19-1-37-5-40-9-5-8-72-30-105-34-29-4-31 35-5 72 14 20 20 39 16 54-8 31-44 76-62 76-8 0-14 5-14 10 0 6-6 10-13 10-7 0-18 5-25 12-13 13-52 19-52 7 0-4 6-10 13-12 9-4 9-6-1-6-10-1-10-6 2-23 12-17 16-49 16-130v-107l-47-7c-55-9-49-8-90-18-26-6-38-3-59 13-15 12-29 20-30 18-7-7 27-92 44-113 10-12 34-27 55-33 45-15 53-27 35-49-7-9-31-52-53-94-22-43-43-78-47-78-4 0-8-4-8-10 0-13-32-50-43-50-5 0-4 6 2 14 11 14 6 86-8 96-63 46-132 90-138 88-13-4-55 23-48 30 4 4 10 7 13 7 4 1 18 7 31 14 12 7 32 11 42 8 10-3 19-1 19 4 0 4 18 13 39 19 53 14 63 43 27 77-34 31-72 42-135 39l-49-2 6 59c4 43 1 61-8 67-11 7-11 16 4 47 15 35 28 45 86 68 3 1 19 7 35 13 17 7 37 16 45 20 20 11 102 35 220 62 52 13 121 31 154 41 32 11 78 19 102 19 24 0 44 5 44 10 0 6 5 10 10 10 6 0 10-33 9-82-1-90 16-144 50-165 21-13 51-8 51 8 0 5 9 9 20 9 11 0 20 4 20 9 0 5 9 11 20 14 13 3 20 0 20-9 0-24 26-5 51 38 13 22 36 54 52 71 15 16 27 38 27 47 0 10 7 23 15 30 8 7 15 24 15 39 0 15 7 36 15 48 8 12 17 47 18 79 2 32 9 60 15 62 7 2 12 10 12 17 0 8 8 18 18 24 16 9 16 11 0 39-10 17-18 38-18 47 0 19-11 30-65 67-22 15-71 57-108 93-69 66-87 76-87 51 0-8-6-16-14-19-12-5-12-12 1-49 26-73 10-186-44-310-16-37-16-37-92-43-42-4-83-9-91-12-17-6-49-10-139-19l-64-6 6 54c3 29 8 64 12 78 11 43 35 202 31 209-2 3-1 25 4 49 4 26 4 42-2 42-6 0-7 7-4 16 7 17-5 31-48 55-62 35-126 94-126 116 0 21-35 63-52 63-5 0-11-6-14-14zm229-1434c-2-6-5-68-7-138-3-70-9-131-14-136-5-5-28-2-52 7-24 8-45 13-48 10-3-3 0-5 6-5 7 0 12-4 12-10 0-6-9-6-26 0-14 6-43 10-65 10-21 0-39 5-39 10 0 6 17 27 38 48 20 20 53 57 72 82 19 25 40 50 46 55 6 6 21 27 34 48 20 34 49 46 43 19zm-369-57c25-24 56-47 70-51 14-3 26-10 26-15 0-5 10-10 23-10 16-1 17-3 5-6-9-2-26 1-37 7-19 10-33 6-71-18-2-2 2-7 9-12 9-5 11-14 6-26-4-11-9-28-10-38-2-22-53-66-76-66-14 0-15 7-7 53 5 28 9 91 10 140 0 48 1 87 4 87 2 0 24-20 48-45z"/>
      <path d="m1160 3806c0-76 27-148 71-187 26-23 28-28 14-39-43-36 0-56 91-41 33 5 87 7 120 5 58-5 59-4 77 26 22 40 22 44-7 86-19 28-94 87-116 91-3 1-16 4-30 7-14 2-55 10-92 17-64 12-67 14-88 56-12 23-26 43-31 43-5 0-9-29-9-64z"/>
      <path d="m967 3263c-10-10-8-151 2-157 5-3 12-18 16-33 3-15 19-39 34-54l28-26-21-29c-11-16-23-31-26-34-3-3-14-19-26-35-18-25-19-33-8-43 9-9 19-9 31-3 96 53 131 64 213 67 62 3 92 9 110 23 32 24 36 55 11 83-12 12-21 28-21 35 0 7-5 13-10 13-6 0-20 9-32 20-12 11-28 20-35 20-7 0-13 4-13 9 0 13-50 25-93 22-60-4-103 22-130 79-13 27-27 47-30 43z"/>
      <path d="m2505 2429c-16-4-57-15-90-23-33-7-67-17-75-20-12-5-182-32-240-38-8-1-25 2-38 6-23 8-22 7 5-32 20-29 45-48 88-66 69-30 88-31 182-12 37 8 113 17 168 21 55 3 105 11 111 16 6 5 33 12 60 15 75 8 94 13 94 25 0 19-62 83-93 97-39 16-134 23-172 11z"/>
      <path d="m2820 2178c-30-10-64-22-75-27-21-10-95-23-132-23-13 0-23-4-23-8 0-10-84-26-112-22-10 1-18-5-18-13 0-8 7-15 15-15 8 0 15-8 15-18 0-10 10-28 23-39 40-37 35-38 202 37 22 10 61 21 88 24 26 4 47 11 47 15 0 11 93 23 115 15 17-7 17-45 0-144-2-14-7-41-10-60-3-19-12-48-20-65-7-16-20-46-28-66-8-20-26-47-41-62-14-14-26-31-26-37 0-30-176 1-184 33-2 7-8 26-13 44-8 22-7 35 0 42 6 6 7 11 3 11-5 0-3 6 4 14 23 29-26 103-96 147-49 30-130 26-105-5 6-7 9-15 6-18-3-2 11-10 30-18 19-7 36-18 38-24 2-6 0-42-4-81-34-287-37-326-38-565-1-129-4-253-7-275-11-102-21-241-19-255 2-8 4-141 5-295 0-185 4-274 10-263 6 9 10 27 9 40 0 12 6 61 14 108 9 55 11 87 5 91-7 4-6 8 1 10 6 2 15 31 21 64 17 102 42 209 52 221 5 7 7 24 4 38-3 14 0 28 5 31 5 4 9 20 9 36 0 17 4 38 9 47 5 10 12 63 16 119 3 56 8 112 11 125 3 13 5 126 6 251 0 125 5 230 9 233 12 7 58-20 109-65 25-23 48-41 53-41 4 0 7-6 7-14 0-7 11-21 24-29 22-15 26-14 59 9 20 13 41 24 46 24 6 0 11 7 11 16 0 8 5 12 10 9 14-8 60 35 60 56 0 9 7 22 15 29 8 7 15 20 15 30 0 9 9 28 21 41 11 13 18 31 16 41-3 9 1 19 9 22 9 3 14 20 14 44 0 21 4 42 10 48 5 5 12 33 14 62 3 28 13 68 21 88 23 56 26 89 10 110-8 10-15 29-15 40 0 22-17 34-50 34-10 0-25 6-32 13-7 6-34 22-58 34-54 27-111 27-190 1z"/>
      <path d="m2199 2097c-8-8-44-21-80-30-124-30-164-43-162-52 1-6-21-11-48-13-47-3-50-1-62 28-8 17-16 27-20 23-15-14-6-48 33-122 42-80 55-137 38-158-14-18 55-156 88-178 29-18 36-15 41 18 5 36 12 49 23 42 6-4 21 0 34 8 38 25 72 24 100-2 14-14 26-19 26-12 0 6 8 15 18 18 24 9 62 45 62 60 0 6 13 24 28 40 16 15 37 50 47 77 10 26 25 54 32 62 14 13 17 45 13 107-2 21-8 27-26 27-13 0-24 4-24 9 0 5-11 12-24 15-14 3-32 13-40 22-23 22-79 29-97 11zm-15-139c-4-13-8-25-9-28-5-28-19-50-31-50-7 0-20-16-28-35-10-23-22-35-35-35-11 0-26-3-35-6-11-4-16 0-16 14 0 10-12 31-26 45-24 25-25 47-2 47 6 0 16 7 22 14 11 14 157 68 164 61 2-2 0-14-4-27z"/>
    </g>
  </symbol>
  <symbol id="We-Love-Maira" viewBox="0 0 50 50">
    <path d="M24.05 49.54C22.64 48.93 15.03 39.28 12.83 34.74 7.6 23.89 10.94 15.27 20.18 15.87c3.17 0.2 3.68 0 3.91-1.53C24.31 12.79 23.81 12.54 19.8 12.12 14.17 11.54 11.37 10.13 6.84 5.59 4.29 3.04 3.6 1.88 4.37 1.4 6.36 0.17 11.87-0.35 16.58 0.25c4.07 0.51 5.15 1.05 8.3 4.26 3.28 3.32 3.57 3.95 3.06 6.59-0.63 3.37-0.19 3.57 2.76 1.25 1.2-0.95 3.38-1.66 5.03-1.66 3.81 0 7.93 4.23 9.26 9.49 1.18 4.68 1.23 14.93 0.09 19.03-1.05 3.79-5.09 7.35-8.36 7.35-1.33 0-3.65 0.76-5.15 1.66-2.49 0.93-4.59 2.61-7.52 1.33zM38.47 25.17c0.44-0.64 1.87-3.82 0.99-5.12-1.59-2.38-2.36 0.95-3.17 1.04-1.2 0.13-1.77-0.64-2.55-0.25-1.56 0.79-0.34 2.9 0.86 4.01 1.36 1.28 2.68 2.07 3.87 0.32z" style="fill:#a66264;stroke-width:0.9"/>
    <path d="m12.7 34.01c-1.37-2.93-2.21-6.04-2.21-8.59-0.01-3.54 0.33-4.33 2.8-6.55 2.49-2.23 3.21-2.45 6.36-1.98 2.84 0.42 3.65 0.26 4.07-0.83 1.09-2.86 0.56-3.72-2.26-3.72-4.86 0-10.22-2.41-14.3-6.43C4.36 3.12 3.59 1.9 4.36 1.41 6.36 0.19 11.85-0.35 16.58 0.25c4.1 0.51 5.15 1.05 8.39 4.33 3.59 3.63 3.66 3.84 2.78 6.77-0.51 1.65-0.79 3.14-0.63 3.3 0.16 0.16 1.74-0.7 3.53-1.91 5.99-4.08 12.31-0.77 14.41 7.57 1.14 4.55 1.17 14.83 0.04 18.89-1.05 3.79-5.09 7.35-8.36 7.35-1.33 0-3.65 0.76-5.15 1.66-2.61 1.59-5.6 2.3-7.37 1.31C22.15 48.36 15.37 39.54 12.7 34.01Zm26.98-9.43c1.24-2.96 0.9-6.02-0.73-6.65-1.54-0.6-6.74 2.2-7.03 3.79-0.33 1.69 3.35 5.65 5.26 5.65 0.73 0 1.85-1.25 2.49-2.78z" style="fill:#615e5c;stroke-width:0.9"/>
    <path d="m23.35 48.01c-3.56-3.09-8.88-10.78-10.72-15.47-2.5-6.35-2.29-9.51 0.9-13.14 2.53-2.87 2.83-2.98 6.59-2.47 3.31 0.45 4.1 0.3 4.84-0.99 0.48-0.84 0.9-1.05 0.92-0.48 0.04 1.62 1.43 1.24 3.66-1.01 4.28-4.28 9.87-3.47 12.82 1.9 2.26 4.11 2.81 6.79 2.84 13.51 0.03 10.53-2.89 15.82-8.76 15.88-1.43 0.01-4.1 0.96-5.94 2.08-4.08 2.51-4.46 2.52-7.16 0.19zm16.33-23.42c1.24-2.96 0.9-6.02-0.73-6.65-1.54-0.6-6.74 2.2-7.03 3.79-0.33 1.69 3.35 5.65 5.26 5.65 0.73 0 1.85-1.25 2.49-2.78z" style="fill:#d91e22;stroke-width:0.9"/>
    <path d="m24.8 12.61c-0.34-0.89-1.59-1.31-3.89-1.31-1.87 0-4.78-0.58-6.49-1.3C10.64 8.65 5.03 3.35 5.6 1.9 6.17 0.37 10.94-0.33 16 0.34c3.72 0.48 4.87 1.11 8.01 4.39 2.96 3.11 3.57 4.23 3.14 5.92-0.7 2.81-1.72 3.76-2.35 2.16z" style="fill:#3f8c42;stroke-width:0.9"/>
    <path d="m23.35 48.01c-3.56-3.09-8.88-10.78-10.72-15.47-2.5-6.35-2.29-9.51 0.9-13.14 2.53-2.87 2.83-2.98 6.59-2.47 3.31 0.45 4.1 0.3 4.84-0.99 0.48-0.84 0.9-1.05 0.92-0.48 0.04 1.62 1.43 1.24 3.66-1.01 4.28-4.28 9.87-3.47 12.82 1.9 2.26 4.11 2.81 6.79 2.84 13.51 0.03 10.53-2.89 15.82-8.76 15.88-1.43 0.01-4.1 0.96-5.94 2.08-4.08 2.51-4.46 2.52-7.16 0.19zm7.85-4.35c1.04-0.69 3.31-1.18 5.05-1.11 3.51 0.13 4.23-0.57 5.57-5.4 1.05-3.81 0.71-14.42-0.45-14.24-0.45 0.07-0.95-1.23-1.05-2.91-0.3-4.18-1.82-5.51-5.53-4.83-3.51 0.66-4.24 1.56-3.06 3.75 1.14 2.13-0.64 3.98-4.51 4.71-3.46 0.64-6.11-0.1-8.66-2.44-1.94-1.78-1.95-1.78-3.18-0.12-2.48 3.32 0.29 11.86 6.27 19.41 3.75 4.72 6.02 5.47 9.55 3.15zm4.32-16.28c-0.3-0.48 0.07-0.6 0.9-0.29 0.89 0.34 1.84-0.03 2.54-0.99 0.63-0.86 1.12-1.17 1.12-0.71 0 2.16-3.54 3.69-4.58 2.01z" style="fill:#a21b1d;stroke-width:0.9"/>
    <path d="m24.8 12.61c-0.26-0.92-1.59-1.31-3.89-1.31-1.87 0-4.78-0.58-6.49-1.3C10.64 8.65 5.03 3.35 5.6 1.9 6.17 0.37 10.94-0.33 16 0.34c3.72 0.48 4.87 1.11 8.01 4.39 2.96 3.11 3.57 4.23 3.14 5.92-0.7 2.81-1.33 5.85-2.35 2.16zM13.69 4.84C12.98 3.4 11.78 2.32 10.88 2.32 6.11 3.88 16.2 9.96 13.69 4.84Zm7.69 0.1C21.14 4.54 20.15 4 19.2 3.75 17.79 3.38 17.66 3.51 18.46 4.48c1.05 1.27 3.68 1.68 2.93 0.45z" style="fill:#265a29;stroke-width:0.9"/>
    <path d="M20.75 44.8C16.04 39.79 11.69 31.43 11.12 26.27c-0.36-3.27-0.13-3.99 2.29-6.51 2.55-2.68 2.63-2.7 1.26-0.42-2.96 4.94-0.23 14.24 6.43 21.79 4.45 5.05 6.08 5.63 10.09 3.61 1.82-0.93 3.88-1.38 4.84-1.08 0.93 0.3 2.51-0.03 3.6-0.74 5.42-3.56 4.91-24.85-0.69-28.52-1.37-0.9-2.52-0.99-4.58-0.41-4.17 1.2-5.24 2.35-4.13 4.43 0.77 1.44 0.61 1.98-0.95 3.25-2.1 1.69-4.68 1.93-7.95 0.69-3.02-1.14-2.51-3.85 0.66-3.51 1.59 0.17 2.27-0.14 2.27-1.04 0-0.71 0.71-1.28 1.63-1.28 0.9 0 2.55-0.93 3.68-2.06 7-7 14.63-0.92 15.4 12.32 0.73 12.56-2.24 18.93-8.79 18.93-1.63 0-3.81 0.73-5 1.66-3.51 2.77-5.94 2.17-10.4-2.58zm4.8-33.2c-0.32-0.51-2.63-0.93-5.15-0.93-4.58 0-8.31-1.31-10.21-3.61-0.76-0.91-0.22-0.84 2.16 0.29 6.62 3.16 9.24 2.79 4.82-0.71-3.29-2.58-2.44-2.93 1.53-0.6 2 1.17 4.81 2.13 6.26 2.13 2.67 0 3.28 1.04 1.9 3.22-0.5 0.79-0.89 0.86-1.28 0.22zM8.61 0.58c1.81-0.42 5.01-0.42 7.53-0.01C20.24 1.26 20.05 1.3 12.98 1.31 6.81 1.33 6.03 1.2 8.61 0.58Z" style="fill:#5c191a;stroke-width:0.9"/>
    <path d="M20.75 44.8C15.13 38.81 8.69 24.87 11.53 24.87c0.47 0 1.08 1.28 1.38 2.84 1.2 6.35 8.75 17.25 12.98 18.72 1.88 0.66 3.01 0.5 5.35-0.76 2.19-1.17 3.47-1.38 4.87-0.82 1.84 0.74 1.81 0.77-0.45 0.82-1.3 0.03-3.32 0.8-4.49 1.72-3.51 2.77-5.94 2.17-10.4-2.58zm22.75-6.25c0.04-0.97 0.25-1.17 0.5-0.5 0.25 0.6 0.22 1.33-0.07 1.6-0.28 0.28-0.47-0.22-0.44-1.1zm0.83-8.33c0.04-0.97 0.25-1.17 0.5-0.5 0.25 0.6 0.22 1.33-0.07 1.6-0.28 0.28-0.47-0.22-0.44-1.1zM21.95 21.5c-2.8-1.12-2.27-1.8 0.96-1.18 1.59 0.3 3.61 0.12 4.59-0.41 1.1-0.58 1.75-0.63 1.75-0.1 0 0.99-2.76 2.58-4.32 2.51-0.6-0.03-1.94-0.4-2.98-0.82zm3.6-9.9c-0.32-0.51-2.63-0.93-5.15-0.93-4.58 0-8.31-1.31-10.21-3.61-0.76-0.91-0.22-0.84 2.16 0.29 6.62 3.16 9.24 2.79 4.82-0.71-3.29-2.58-2.44-2.93 1.53-0.6 2 1.17 4.81 2.13 6.26 2.13 2.67 0 3.28 1.04 1.9 3.22-0.5 0.79-0.89 0.86-1.28 0.22zM8.61 0.58c1.81-0.42 5.01-0.42 7.53-0.01C20.24 1.26 20.05 1.3 12.98 1.31 6.81 1.33 6.03 1.2 8.61 0.58Z" style="fill:#231d17;stroke-width:0.9"/>
  </symbol>
  <symbol id="You-Pick-Farms" viewBox="0 0 50 50">
    <g transform="matrix(0.83766601 0 0 0.83766601 -4.3218331 -2.7511743)">
      <path d="m30.4 60.82c-0.17-0.45-0.31-1.03-0.31-1.28 0-0.7-0.8-0.55-1.86 0.34-1.15 0.97-1.33 0.99-1.11 0.14 0.09-0.36 0.74-1.11 1.42-1.66 1.37-1.1 3.78-5.15 3.78-6.35 0-0.66-0.23-0.52-1.93 1.16-1.49 1.47-1.97 2.19-2.13 3.14-0.18 1.13-1.13 2.45-1.77 2.45-0.34 0-0.33-0.43 0.02-0.82 0.35-0.38 0.68-3.34 0.37-3.34-0.62 0-1.29 1.29-1.29 2.49 0 1-0.17 1.44-0.71 1.81-1.07 0.75-1.28 0.61-0.71-0.5 0.67-1.3 0.2-1.79-0.89-0.93-0.97 0.76-1.2 0.8-1.2 0.22 0-0.79 4.07-4.37 5.89-5.17 1.82-0.8 2.99-2.26 2.62-3.25-0.23-0.61-0.78-0.26-1.16 0.72-0.29 0.76-0.95 1.07-0.95 0.45 0-0.75-1.22-0.27-1.59 0.63-0.84 2.03-4.29 4.48-6.33 4.49-0.95 0-0.27-0.73 1.33-1.44 1.57-0.69 3.74-2.79 3.33-3.21-0.22-0.22-2.2 0.5-3.14 1.14-1.77 1.21-3.78 1.88-4.55 1.53-0.72-0.34-0.71-0.37 0.94-2.14 1.58-1.69 1.68-1.89 1.68-3.48 0.01-2.1-0.45-2.17-0.94-0.13-0.58 2.42-1.38 3.45-3.51 4.52-1.06 0.53-2.02 0.97-2.15 0.97-0.39 0 1.27-1.61 2.34-2.28 0.99-0.61 1.65-1.73 1.25-2.12-0.1-0.1-0.45 0.05-0.76 0.34-0.93 0.84-3.86 1.68-4.3 1.23-0.28-0.28-0.23-0.48 0.23-0.81 0.71-0.52 1.57-3.09 1.04-3.09-0.19 0-0.74 0.47-1.22 1.04-1.13 1.35-1.48 0.98-0.64-0.67l0.66-1.29-1.36 0.06c-1.77 0.09-1.81-0.66-0.06-1.26 2.25-0.77 2.3-0.84 0.66-1.1-0.97-0.16-1.81-0.13-2.19 0.08-0.48 0.25-0.75 0.21-1.15-0.2-0.48-0.5-0.44-0.61 0.59-1.47 0.61-0.51 1.76-1.17 2.56-1.45 0.8-0.28 1.67-0.59 1.93-0.69 0.32-0.11 0.12-0.28-0.56-0.49-0.79-0.25-1.36-0.2-2.41 0.21-1.61 0.62-1.83 0.64-1.83 0.19 0-0.19 0.8-0.7 1.78-1.15 1.75-0.8 1.8-0.81 3.28-0.28 2.56 0.92 3.06 0.92 4.8 0.03 2.02-1.02 3.51-1.05 7.85-0.16 4 0.82 6.14 0.7 7.03-0.39 0.56-0.69 0.6-1.09 0.42-4.1-0.24-4.06-0.56-4.63-2.89-5.31-1.93-0.56-3.36-0.6-10.21-0.3-4.63 0.2-4.75 0.23-5.03 0.98-0.28 0.73-0.61 0.91-1.5 0.8-0.22-0.03-0.75 0.18-1.19 0.47-0.44 0.29-0.94 0.43-1.13 0.31-0.43-0.27-0.43-1.23 0.01-1.67 0.19-0.19 0.3-0.76 0.24-1.26-0.08-0.7-0.26-0.9-0.75-0.85-3.92 0.41-5.64 0.37-5.83-0.12-0.11-0.29 0.01-0.67 0.28-0.87 0.26-0.19 0.65-0.68 0.86-1.07 0.22-0.41 0.69-0.72 1.09-0.73l0.71-0.01-0.77-0.59c-0.92-0.7-0.72-1.63 0.34-1.63 0.56 0 0.63-0.09 0.33-0.38-0.21-0.21-0.38-0.66-0.38-1 0-0.53 0.16-0.59 1.16-0.43 1.12 0.18 1.14 0.17 0.61-0.41-0.81-0.89-0.51-1.79 0.56-1.68 0.77 0.08 0.87-0.02 0.87-0.85 0-0.54 0.2-1.02 0.48-1.12 0.26-0.1 0.48-0.4 0.48-0.67 0.02-0.35 0.33-0.51 0.94-0.51 0.8 0 0.9-0.1 0.76-0.8-0.14-0.75 0.13-0.98 0.98-0.83 0.14 0.02 0.22-0.28 0.16-0.68-0.13-0.94 1.12-1.18 2-0.39 0.51 0.46 0.69 0.48 1.11 0.13 0.31-0.26 0.44-0.69 0.33-1.13-0.11-0.43 0.01-0.87 0.31-1.11 0.39-0.33 0.6-0.29 1.12 0.17 0.35 0.32 0.63 0.83 0.63 1.15 0 0.31 0.14 0.66 0.32 0.77 0.18 0.11 0.32-0.05 0.32-0.35 0-0.3 0.25-0.72 0.55-0.94 0.46-0.34 0.48-0.48 0.12-0.91-0.57-0.69-0.22-1.48 0.66-1.48 0.39 0 1.11-0.39 1.61-0.86 0.94-0.9 0.92-0.91 3.14 0.21 0.28 0.14 0.48 0.68 0.48 1.32 0 0.74 0.15 1.08 0.48 1.08 0.69 0 0.79-1.07 0.16-1.76-0.68-0.75-0.51-1.72 0.32-1.87 0.35-0.07 0.75-0.32 0.89-0.56 0.34-0.59 1.16-0.57 1.39 0.04 0.28 0.72 0.73 0.58 1.08-0.32 0.25-0.66 0.52-0.8 1.54-0.8 0.68 0 1.32 0.09 1.43 0.2 0.11 0.11 0.78 0.23 1.48 0.26 0.71 0.03 1.55 0.31 1.88 0.6 0.79 0.71 1.42 0.68 1.91-0.1 0.68-1.09 1.92-0.76 1.7 0.45-0.03 0.16 0.03 0.5 0.13 0.77 0.15 0.4 0.3 0.36 0.84-0.22 0.75-0.81 1.36-0.75 1.5 0.15 0.05 0.34 0.38 0.97 0.72 1.41l0.64 0.8 0.66-0.88c0.82-1.09 1.89-1.18 1.89-0.16 0.01 1.27 0.39 1.55 1.4 1.03 1.28-0.66 1.76-0.59 2.11 0.33 0.35 0.92 0.71 1.01 1.28 0.32 0.59-0.71 1.08-0.59 1.86 0.47 0.66 0.9 0.68 1.02 0.23 2.31-0.26 0.75-0.4 1.42-0.32 1.51 0.08 0.08 0.55-0.24 1.04-0.71 1.04-1 2.3-1.15 2.3-0.28 0 0.32-0.17 0.75-0.38 0.95-0.29 0.29-0.24 0.53 0.21 1.03 0.54 0.6 0.63 0.61 1.15 0.14 0.72-0.65 1.69-0.47 1.84 0.35 0.06 0.35 0.35 0.9 0.64 1.23 0.49 0.55 0.48 0.62-0.09 1.04-0.34 0.25-0.73 0.45-0.88 0.45-0.14 0-0.26 0.29-0.26 0.64 0 0.62-0.43 0.8-1.67 0.7-0.3-0.02-0.72 0.26-0.92 0.64-0.35 0.65-0.31 0.67 0.83 0.49 0.67-0.11 1.4-0.48 1.66-0.85 0.6-0.86 2.02-0.89 2.02-0.03 0 0.34-0.14 0.71-0.32 0.82-0.63 0.39-0.3 1.08 0.56 1.18 1.31 0.15 1.2 1.29-0.16 1.69-1.35 0.4-1.35 0.9 0 0.66 0.57-0.1 1.24-0.05 1.49 0.11 0.55 0.36 0.25 1.26-0.52 1.55-0.9 0.34-1.28 0.85-1.24 1.7 0.02 0.6-0.15 0.82-0.72 0.9-0.42 0.06-0.91-0.05-1.1-0.24-0.24-0.24-0.52-0.18-0.95 0.21-0.58 0.53-0.64 0.51-1.36-0.32-0.82-0.96-2.62-1.5-4.98-1.52-1.1-0.01-2.14 0.33-4.16 1.35l-2.69 1.36-3.32-0.08-3.32-0.08-1.13 1.13-1.13 1.13 0.22 2.61c0.27 3.24 0.68 4.13 2.12 4.63 2.69 0.92 8.77 0.27 12.79-1.37 3.3-1.34 4.52-1.35 7.76-0.04 1.54 0.62 3.23 1.22 3.76 1.34 0.53 0.12 1.05 0.37 1.17 0.56 0.28 0.45-2.81 0.1-4.56-0.5-0.69-0.24-1.68-0.54-2.21-0.67l-0.96-0.23 1.12 0.76c0.61 0.42 1.17 1.01 1.23 1.33 0.1 0.53 0.05 0.54-0.86 0.07-0.53-0.28-1.14-0.5-1.35-0.5-0.21 0-0.99-0.3-1.74-0.68-1.04-0.52-1.5-0.6-1.96-0.34-0.58 0.32-0.58 0.34 0.04 0.56 0.35 0.13 1.43 0.55 2.4 0.95 0.97 0.4 2.77 0.81 4 0.93 4.04 0.38 4.54 0.71 2.08 1.4l-1.12 0.31 1.36 0.56c1.95 0.81 1.71 1.21-0.56 0.95-1.32-0.15-1.92-0.11-1.92 0.13 0 0.19-0.43 0.35-0.96 0.35-1.2 0-1.24 0.55-0.08 1 0.64 0.25 1.17 0.24 1.94-0.04 1.35-0.48 1.64-0.2 0.75 0.74-0.53 0.56-0.6 0.82-0.32 1.11 0.95 0.95-0.31 0.64-3.54-0.86-3.27-1.56-4.8-1.99-4.8-1.39 0 0.14 0.52 0.86 1.14 1.6 1.08 1.26 1.24 1.34 2.85 1.34 0.94 0 1.94 0.09 2.21 0.19 0.81 0.31 0.25 0.77-0.95 0.77-1.41 0-1.41 0.5 0 1.09 1.15 0.48 2.36 2.23 1.78 2.59-0.18 0.11-0.76-0.11-1.29-0.5-0.54-0.38-1.71-0.89-2.61-1.13-1.9-0.5-2.31-0.85-3.62-3.11-1.04-1.78-2.22-2.57-4.45-2.98l-1.26-0.23 0.68 1.09c0.39 0.63 1.51 1.56 2.63 2.21 1.07 0.62 2.33 1.6 2.78 2.18 0.46 0.58 1.39 1.41 2.07 1.84 1.33 0.84 1.67 1.6 0.58 1.32-0.41-0.11-0.73 0.01-0.84 0.3-0.14 0.38-0.39 0.28-1.18-0.47-0.99-0.94-2.16-1.66-2.66-1.65-0.14 0 0.21 0.3 0.78 0.67 0.86 0.55 2.96 3.15 2.96 3.66 0 0.08-0.22 0.14-0.48 0.14-0.3 0-0.49 0.32-0.5 0.88-0.02 0.81-0.07 0.78-0.61-0.43-0.66-1.47-1.84-2.28-1.49-1.01 0.64 2.29 0.61 2.4-0.35 1.25-0.49-0.59-1.21-1.46-1.61-1.92l-0.71-0.84-0.01 1.28c0 0.75 0.25 1.67 0.63 2.24 0.63 0.96 0.86 2.1 0.4 2.05-0.13-0.01-0.74-0.61-1.36-1.33-1.03-1.19-1.12-1.48-1.15-3.41-0.03-2.02-0.08-2.14-1.09-2.83-0.58-0.4-1.16-0.72-1.29-0.72-0.38 0-0.63 3.17-0.32 4 0.16 0.42 0.86 1.06 1.55 1.41 1.06 0.54 1.28 0.83 1.41 1.85 0.2 1.57 0.02 1.75-0.44 0.43-0.27-0.78-0.72-1.19-1.79-1.65-0.78-0.34-1.49-0.61-1.56-0.61-0.07 0-0.13 0.47-0.13 1.05 0 0.77 0.26 1.28 1 1.93 1.12 0.98 1.05 1.53-0.09 0.73-0.94-0.66-1.75-0.65-2.01 0.02-0.13 0.35-0.31 0.42-0.52 0.22-0.2-0.2-0.14-1.25 0.18-3.01 0.93-5.06 0.95-6.14 0.16-6.86l-0.7-0.64-1.08 1.18-1.08 1.18 0.95 2.01c1.18 2.49 1.25 3.48 0.23 3.37-0.53-0.06-0.75 0.11-0.82 0.64-0.07 0.46-0.32 0.72-0.72 0.72-0.5 0-0.62 0.23-0.62 1.15 0 1.42-0.66 1.34-1.03-0.13-0.15-0.56-0.45-1.02-0.69-1.02-0.23 0-0.56-0.47-0.72-1.04-0.16-0.57-0.54-1.09-0.85-1.14-0.82-0.16-0.68 0.8 0.27 1.75 0.54 0.54 0.79 1.09 0.72 1.64-0.12 0.98-0.9 1.37-0.9 0.46 0-0.58-0.84-1.59-1.09-1.31-0.06 0.07-0.34 0.56-0.62 1.09l-0.51 0.96-0.01-1.02c-0.01-0.56-0.15-1.11-0.32-1.21-0.17-0.11-0.24-0.58-0.15-1.06 0.09-0.48 0.02-1.08-0.16-1.34-0.63-0.95-1.14 0.22-1.14 2.57 0 2.32-0.28 2.8-0.81 1.4zm8.82-4.32c0.26-0.8-0.06-2.22-0.49-2.22-0.17 0-0.31 0.65-0.31 1.44 0 1.5 0.44 1.92 0.81 0.78zm-2.28-0.38c-0.34-2.44-0.51-3.12-0.77-3.12-0.61 0-0.72 2.15-0.15 3.01 0.67 1.02 1.06 1.07 0.92 0.11zm-2.57-2.55c0.74-3.01 0.67-3.72-0.56-6.08-0.6-1.14-1.18-2.68-1.31-3.41-0.23-1.37-0.6-1.69-0.93-0.82-0.42 1.1-0.15 2.29 0.87 3.82 2 2.99 2.22 4.49 1.03 6.84-0.59 1.16-0.69 1.63-0.42 1.91 0.52 0.52 0.72 0.17 1.31-2.26zm-12.44-2.49c0.11-0.18 0.05-0.32-0.14-0.32-0.19 0-0.34 0.14-0.34 0.32 0 0.18 0.06 0.32 0.14 0.32 0.08 0 0.23-0.14 0.34-0.32zm17.17-0.53c0.32-0.29 0.59-0.7 0.59-0.91 0-0.4-3.51-2.83-3.75-2.59-0.32 0.32 1.91 4.04 2.41 4.04 0.09 0 0.43-0.24 0.75-0.53zm8.6-1.53c-0.69-0.73-3.48-1.94-3.78-1.64-0.34 0.34 0.4 0.82 2 1.28 0.96 0.28 1.83 0.65 1.93 0.82 0.11 0.17 0.28 0.32 0.39 0.32 0.11 0-0.13-0.35-0.54-0.78zm-32.26-0.49c0.82-0.64 1.75-2.45 1.44-2.77-0.33-0.33-1.54 0.55-2.17 1.58-1.08 1.77-0.73 2.34 0.73 1.19zm8.64-0.22c1.06-0.54 1.98-1.86 1.73-2.49-0.37-0.96-3.87 0.63-4.18 1.9-0.38 1.53 0.28 1.69 2.45 0.59zm5.68-1.25c0-0.25-0.13-0.46-0.29-0.46-0.35 0-0.7 0.83-0.45 1.08 0.28 0.28 0.73-0.1 0.73-0.62zm11.78 0.1c-0.06-0.41-0.57-0.99-1.18-1.36-0.6-0.35-1.86-1.35-2.8-2.21-0.94-0.86-1.72-1.38-1.72-1.15 0 0.98 1.7 3.19 3.27 4.26 1.98 1.35 2.58 1.46 2.43 0.46zm-18.76-2.05c0.64-0.58 0.84-2.99 0.24-2.99-1.05 0-1.58 0.7-1.58 2.09 0 1.54 0.36 1.78 1.33 0.9zm6.03-1.13c0-0.32-0.13-0.58-0.29-0.58-0.36 0-0.68 0.81-0.66 1.71 0.01 0.68 0.02 0.68 0.48 0.07 0.26-0.34 0.47-0.88 0.47-1.2zm15.36 1.19c0-0.17-1.77-1.13-2.08-1.13-0.41 0 0.26 0.7 0.92 0.96 0.81 0.33 1.17 0.38 1.17 0.17zm-29.07-0.57c0.57-0.46 1.01-1.52 0.64-1.52-0.14 0-0.66 0.43-1.17 0.96-0.63 0.66-0.77 0.96-0.44 0.96 0.26 0 0.7-0.18 0.98-0.4zm11.36-1.72c0.49-0.64 1.47-1.42 2.18-1.74 1.28-0.57 1.28-0.57 0.33-0.59-2.48-0.05-4.32 1.13-4.32 2.77 0 1.08 0.8 0.89 1.81-0.43zm33.07 0.57c0-0.63-5.62-3.13-6.43-2.86-0.47 0.16 2.42 2.19 3.83 2.7 1.34 0.48 2.59 0.56 2.59 0.16zm-40.91-0.9c0.64-0.58 0.81-2.5 0.25-2.84-0.64-0.4-1.26 0.56-1.26 1.97 0 1.54 0.14 1.66 1.01 0.87zm33.96-0.14c-0.38-0.38-6.48-1.38-6.75-1.11-0.09 0.09 0.47 0.45 1.24 0.81 1.57 0.71 6.17 0.97 5.51 0.3zm-38.69-0.95c0.28-0.3 0.04-0.34-1.08-0.17-1.95 0.29-2.58 0.97-0.68 0.73 0.77-0.1 1.56-0.35 1.76-0.56zm27.9-0.15c-0.34-0.26-1.06-0.46-1.6-0.44l-0.98 0.03 0.96 0.44c0.53 0.24 1.25 0.44 1.6 0.44 0.63 0 0.63 0 0.02-0.47zm-18.51-1.46c0.7-0.27 0.78-0.39 0.4-0.63-0.26-0.16-1.08-0.3-1.83-0.3-1.34 0-1.36 0.01-1.36 1.12v1.13l0.96-0.5c0.53-0.27 1.35-0.64 1.83-0.83zm17.37-13.06c1.32-0.11 2.71-0.38 3.1-0.59 0.75-0.42 2.02-1.9 2.02-2.35 0-0.41-4.36-0.34-5.79 0.09-1.45 0.43-2.39 1.36-2.71 2.65-0.21 0.83-0.17 0.9 0.38 0.68 0.33-0.14 1.69-0.35 3.01-0.46zm-6.08-0.35c0-0.97 1.5-3.99 2.6-5.24l1.29-1.47-0.86-1.75c-1.01-2.07-1.8-2.46-2.9-1.43-0.66 0.62-0.77 1.02-0.77 2.73 0 1.71-0.19 2.37-1.26 4.44-1.25 2.41-1.25 2.44-0.56 2.7 1.62 0.62 2.46 0.62 2.46 0.02zm14.47-1.56c1.1-1.04 1.92-1.98 1.82-2.08-0.1-0.1-0.82 0.03-1.6 0.3-1.16 0.4-1.57 0.77-2.29 2.08-1.22 2.21-0.48 2.1 2.07-0.3zm-24.43 1.02c1.52-0.3 2.82-0.59 2.89-0.64 0.07-0.05-0.03-0.44-0.22-0.87-0.29-0.63-0.79-0.87-2.7-1.3-2.09-0.46-2.47-0.47-3.46-0.05-0.61 0.26-1.3 0.77-1.52 1.14-0.21 0.36-0.64 0.66-0.94 0.66-1.32 0 1.27 1.4 2.91 1.57 0.15 0.02 1.52-0.22 3.04-0.52zm33-0.84c0-0.23-0.42-0.83-0.94-1.32-0.8-0.76-1.12-0.88-2.11-0.71-1.23 0.2-2.88 1.1-2.58 1.41 0.21 0.21 3.85 0.96 4.92 1.01 0.4 0.02 0.72-0.15 0.72-0.38zm-42.01-0.73c-0.1-0.11-0.38-0.12-0.61-0.03-0.26 0.1-0.18 0.18 0.19 0.19 0.34 0.01 0.53-0.06 0.42-0.17zm16.26-3.38c0.25-0.72 0.46-1.67 0.46-2.1 0-1.02-0.92-2.97-1.41-2.97-0.63 0-1.92 5.19-1.67 6.74 0.12 0.75 0.3 1.49 0.4 1.65 0.25 0.4 1.64-1.69 2.21-3.32zm-16.49 1.65c0-0.18-0.29-0.32-0.64-0.32-0.35 0-0.64 0.14-0.64 0.32 0 0.18 0.29 0.32 0.64 0.32 0.35 0 0.64-0.14 0.64-0.32zm3.61-0.55c0.61-0.34-0.24-0.75-1.16-0.55-1.21 0.26-1.29 0.32-1.02 0.76 0.19 0.3 1.49 0.18 2.18-0.21zm40.76 0.05c-0.68-0.25-1.39-0.36-1.58-0.24-0.46 0.28 0.64 0.7 1.86 0.7 0.94 0 0.93-0.01-0.28-0.45zm-50.13-0.14c0-0.18-0.14-0.32-0.32-0.32-0.18 0-0.32 0.14-0.32 0.32 0 0.18 0.14 0.32 0.32 0.32 0.18 0 0.32-0.14 0.32-0.32zm33.03-1.04c2.4-1.64 1.91-2.07-0.87-0.77-0.88 0.41-1.8 0.98-2.04 1.28-0.82 0.99 1.25 0.62 2.91-0.51zm3.75-0.17c0.18-0.67 0.54-1.49 0.8-1.84 0.61-0.81 0.62-1.14 0.02-0.91-0.26 0.1-0.48 0.4-0.48 0.65 0 0.26-0.58 0.99-1.28 1.62-1.53 1.37-1.59 1.68-0.33 1.68 0.83 0 0.99-0.16 1.27-1.21zm-20.37 0.11c-0.14-0.25-0.93-1.24-1.76-2.2-1.8-2.08-2.82-2.41-4.34-1.4-0.85 0.56-1.03 0.88-0.96 1.66 0.11 1.16 1.01 1.66 3.67 2.05 3.02 0.44 3.69 0.42 3.39-0.11zm2.09-2.28c0.56-1.23 0.48-1.51-0.88-2.83-0.9-0.88-1.42-1.16-1.87-1.02-0.9 0.28-1.68-0.1-1.68-0.83 0-0.34-0.14-0.54-0.32-0.43-0.76 0.47-0.2 1.63 1.81 3.71 1.17 1.21 2.23 2.21 2.35 2.21 0.12 0 0.38-0.37 0.59-0.82zm23.09 0.02c0.52-0.63 1.81-0.62 2.17 0.02 0.25 0.45 0.32 0.45 0.69 0 0.58-0.7 0.23-1.36-0.83-1.54-0.5-0.09-1.16-0.26-1.46-0.39-0.41-0.18-0.63-0.03-0.86 0.56-0.17 0.44-0.46 0.9-0.64 1.01-0.19 0.12-0.34 0.35-0.34 0.51 0 0.47 0.84 0.35 1.28-0.18zm-35.97-0.33c-0.66-0.5-1.03-0.42-0.68 0.15 0.12 0.19 0.45 0.34 0.75 0.33 0.48-0.01 0.47-0.07-0.08-0.48zm42.06-0.15c0-0.18-0.14-0.32-0.32-0.32-0.18 0-0.32 0.14-0.32 0.32 0 0.18 0.14 0.32 0.32 0.32 0.18 0 0.32-0.14 0.32-0.32zm-15.24-1.82c1.04-1.16 1.17-1.48 0.99-2.42-0.32-1.71-0.62-2.04-1.49-1.6-0.41 0.21-1.17 0.42-1.7 0.47-0.94 0.09-0.96 0.13-0.95 1.87 0.01 1.97 0.83 3.7 1.55 3.27 0.23-0.14 0.95-0.85 1.61-1.59zm-28.17 0.7c-0.1-0.26-0.38-0.48-0.62-0.48-0.26 0-0.36 0.2-0.25 0.48 0.1 0.26 0.38 0.48 0.62 0.48 0.26 0 0.36-0.2 0.25-0.48zm33.47-0.77c1.42-0.7 1.79-1.05 2.02-1.92 0.15-0.58 0.2-1.14 0.1-1.24-0.1-0.1-0.77 0-1.5 0.22-1.31 0.39-4.44 3.12-4.44 3.88 0 0.51 1.71 0.09 3.82-0.94zm-14-0.73c-0.47-0.47-0.51-1.54-0.06-1.54 0.18 0 0.32-0.43 0.32-0.96 0-0.53 0.14-0.96 0.32-0.96 0.18 0 0.32-0.14 0.32-0.32 0-0.18-0.18-0.32-0.4-0.32-0.38 0-1.84 2.39-1.84 3.01 0 0.42 1 1.47 1.39 1.47 0.2 0 0.19-0.15-0.05-0.38zm-12.22-0.58c0-0.18-0.14-0.32-0.32-0.32-0.18 0-0.32 0.14-0.32 0.32 0 0.18 0.14 0.32 0.32 0.32 0.18 0 0.32-0.14 0.32-0.32zm-4.48-0.45c0-0.07-0.22-0.21-0.48-0.31-0.26-0.1-0.48-0.04-0.48 0.13 0 0.17 0.22 0.31 0.48 0.31 0.26 0 0.48-0.06 0.48-0.13zm20.06-0.57c-0.1-0.26-0.18-0.18-0.19 0.19-0.01 0.34 0.06 0.53 0.17 0.42 0.1-0.1 0.11-0.38 0.02-0.61zm-15.2-1.29c-0.23-0.23-0.38-0.25-0.38-0.05 0 0.43 0.38 0.81 0.59 0.59 0.09-0.09-0.01-0.34-0.21-0.54zm7.16-0.22c-0.12-0.19-0.43-0.35-0.69-0.35-0.38 0-0.4 0.13-0.11 0.67 0.25 0.46 0.47 0.57 0.69 0.35 0.18-0.18 0.23-0.48 0.11-0.67zm16.14 0.31c0-0.17-0.14-0.39-0.32-0.5-0.18-0.11-0.32 0.03-0.32 0.3 0 0.27 0.14 0.5 0.32 0.5 0.18 0 0.32-0.14 0.32-0.3zm-13.62-1.88c-0.31-0.62-0.75-1.02-1.12-1.02-0.83 0-0.78 0.42 0.1 0.8 0.4 0.17 0.77 0.66 0.83 1.07 0.07 0.47 0.22 0.64 0.4 0.46 0.18-0.18 0.1-0.69-0.21-1.32zm21.62 0.86c0-0.18-0.14-0.23-0.32-0.12-0.18 0.11-0.32 0.34-0.32 0.52 0 0.18 0.14 0.23 0.32 0.12 0.18-0.11 0.32-0.34 0.32-0.52zm-8.32-1.56c0-0.18-0.06-0.32-0.14-0.32-0.08 0-0.23 0.14-0.34 0.32-0.11 0.18-0.05 0.32 0.14 0.32 0.19 0 0.34-0.14 0.34-0.32zm-8.96-0.8c0.33-0.39 0.3-0.48-0.12-0.48-0.29 0-0.52 0.22-0.52 0.48 0 0.26 0.05 0.48 0.12 0.48 0.07 0 0.3-0.22 0.52-0.48zm-2.88-0.3c0-0.65-0.63-0.96-1.07-0.52-0.28 0.28-0.25 0.44 0.11 0.67 0.68 0.43 0.96 0.38 0.96-0.15zm2.37-1.65c0.29-0.75-0.01-1.02-0.92-0.85-0.96 0.18-1 0.34-0.25 0.91 0.74 0.56 0.93 0.55 1.17-0.06z" style="fill:#a8bda8"/>
    </g>
  </symbol>
</svg>
