<?xml version="1.0" encoding="UTF-8" standalone="no"?>
<svg
   width="247.38811"
   height="39.482059"
   viewBox="0 0 247.38811 39.978116"
   version="1.1"
   id="svg6"
   sodipodi:docname="Kobe JET logo v2.svg"
   inkscape:version="1.1.1 (3bf5ae0d25, 2021-09-20)"
   xmlns:inkscape="http://www.inkscape.org/namespaces/inkscape"
   xmlns:sodipodi="http://sodipodi.sourceforge.net/DTD/sodipodi-0.dtd"
   xmlns:xlink="http://www.w3.org/1999/xlink"
   xmlns="http://www.w3.org/2000/svg"
   xmlns:svg="http://www.w3.org/2000/svg">
  <defs
     id="defs10">
    <linearGradient
       id="linearGradient27008"
       inkscape:swatch="solid">
      <stop
         style="stop-color:#0000bc;stop-opacity:1;"
         offset="0"
         id="stop27006" />
    </linearGradient>
    <linearGradient
       id="linearGradient27000"
       inkscape:swatch="solid">
      <stop
         style="stop-color:#0000bc;stop-opacity:1;"
         offset="0"
         id="stop26998" />
    </linearGradient>
    <linearGradient
       id="linearGradient15949"
       inkscape:swatch="solid">
      <stop
         style="stop-color:#880000;stop-opacity:1;"
         offset="0"
         id="stop15947" />
    </linearGradient>
    <linearGradient
       id="linearGradient15924"
       inkscape:swatch="solid">
      <stop
         style="stop-color:#0000bc;stop-opacity:0.41960785;"
         offset="0"
         id="stop15922" />
    </linearGradient>
    <linearGradient
       id="linearGradient3859"
       inkscape:swatch="solid">
      <stop
         style="stop-color:#000000;stop-opacity:1;"
         offset="0"
         id="stop3857" />
    </linearGradient>
    <linearGradient
       inkscape:collect="always"
       xlink:href="#linearGradient15949"
       id="linearGradient15951"
       x1="-10.130829"
       y1="20.045547"
       x2="179.38083"
       y2="20.045547"
       gradientUnits="userSpaceOnUse"
       gradientTransform="translate(-1.0742308,-0.01)" />
  </defs>
  <sodipodi:namedview
     id="namedview8"
     pagecolor="#ffffff"
     bordercolor="#666666"
     borderopacity="1.0"
     inkscape:pageshadow="2"
     inkscape:pageopacity="0.0"
     inkscape:pagecheckerboard="0"
     showgrid="false"
     inkscape:zoom="4"
     inkscape:cx="165"
     inkscape:cy="6.75"
     inkscape:window-width="2560"
     inkscape:window-height="1334"
     inkscape:window-x="-11"
     inkscape:window-y="-11"
     inkscape:window-maximized="1"
     inkscape:current-layer="svg6" />
  <path
     d="M 225.82617,38.969731 V 8.7901946 H 215.00591 V 1.2564e-4 H 248.9258 V 8.7901946 H 238.30602 V 38.979793 l -12.47985,-6.2e-5 z M 178.46551,38.95954 V 22.129714 c -0.04,-0.02 -0.10974,-0.03976 -0.0497,-0.08976 0.1,-0.07 0.14,-0.05 0.4,0.22 0.14,0.14 0.19,0.17 0.26,0.16 0.04,-0.01 0.26,-0.19 0.47,-0.39 0.53,-0.5 0.95,-0.88 1.33,-1.2 0.17,-0.14 0.45,-0.38 0.62,-0.51 0.17,-0.14 0.32,-0.25 0.34,-0.25 0.02,0 0.03,0.06 0.02,0.17 -0.01,0.09 -0.03,0.36 -0.05,0.6 -0.02,0.24 -0.06,0.68 -0.09,0.99 l -0.06,0.55 0.13,0.21 c 0.07,0.12 0.13,0.23 0.13,0.25 0,0.02 -0.04,0.12 -0.09,0.21 -0.11,0.22 -0.11,0.43 0,0.89 0.1,0.41 0.12,0.55 0.16,1.29 0.02,0.35 0.06,0.66 0.1,0.82 0.12,0.44 0.24,1.28 0.3,1.99 0.07,0.85 0.14,1.35 0.23,1.64 0.08,0.24 0.1,0.56 0.17,2.03 0.03,0.77 0.21,3.09 0.29,3.73 0.02,0.19 0.05,0.6 0.05,0.9 0.01,0.3 0.03,0.58 0.05,0.62 0.02,0.04 0.1,0.08 0.18,0.11 0.08,0.02 0.14,0.05 0.14,0.06 0,0.02 -0.22,0.14 -0.48,0.27 l -0.48,0.24 -0.49,0.02 c -0.53,0.02 -0.65,0.05 -0.74,0.19 -0.08,0.12 -0.1,0.46 -0.05,0.63 0.04,0.11 0.07,0.15 0.18,0.18 0.24,0.08 0.86,0.12 1.25,0.08 0.63,-0.06 0.71,-0.08 0.9,-0.17 l 0.18,-0.09 0.21,0.11 c 0.24,0.13 0.39,0.14 0.91,0.08 0.4,-0.05 0.74,-0.15 0.85,-0.26 0.12,-0.12 0.14,-0.26 0.07,-0.56 -0.07,-0.31 -0.05,-0.44 0.08,-0.44 0.12,0 0.14,0.08 0.17,0.51 0.01,0.2 0.03,0.38 0.04,0.41 0.01,0.03 0.08,0.07 0.15,0.1 0.2,0.07 0.37,0.2 0.45,0.34 0.04,0.07 0.08,0.179584 0.08,0.189584 z M 188.71577,38.84 c 0.16,-0.16 0.19,-0.31 0.11,-0.53 -0.05,-0.12 -0.12,-0.21 -0.34,-0.39 -0.16,-0.13 -0.31,-0.29 -0.35,-0.36 -0.13,-0.26 -0.06,-0.46 0.18,-0.52 0.14,-0.04 0.21,-0.15 0.16,-0.24 -0.01,-0.02 -0.03,-0.23 -0.04,-0.45 -0.01,-0.23 -0.04,-0.52 -0.07,-0.64 -0.03,-0.12 -0.07,-0.48 -0.09,-0.8 -0.02,-0.32 -0.06,-0.86 -0.09,-1.21 -0.03,-0.35 -0.06,-0.82 -0.06,-1.05 0,-0.23 -0.03,-0.7 -0.06,-1.05 -0.1,-1.03 -0.13,-1.63 -0.13,-2.64 0,-0.53 -0.01,-1.15 -0.01,-1.38 0,-0.23 0.02,-0.78 0.04,-1.22 0.04,-0.7 0.04,-0.95 -0.01,-1.85 -0.04,-0.77 -0.07,-1.09 -0.11,-1.21 -0.03,-0.09 -0.07,-0.31 -0.09,-0.5 -0.04,-0.39 -0.04,-0.4 0.18,-0.74 0.07,-0.12 0.15,-0.26 0.16,-0.31 0.01,-0.06 0.04,-0.12 0.05,-0.14 0.05,-0.07 0.57,-1.09 0.74,-1.46 0.34,-0.75 0.62,-1.46 0.66,-1.68 0.06,-0.34 -0.07,-0.95 -0.33,-1.6 -0.19,-0.46 -0.73,-1.64 -1.05,-2.25 -0.16,-0.31 -0.34,-0.67 -0.4,-0.8 -0.14,-0.31 -0.41,-0.78 -0.51,-0.89 -0.09,-0.09 -0.98,-0.54 -1.26,-0.62 -0.28,-0.09 -0.37,-0.13 -0.37,-0.16 0,-0.02 -0.06,-0.1 -0.14,-0.18 -0.17,-0.18 -0.24,-0.3 -0.38,-0.71 -0.12,-0.34 -0.13,-0.47 -0.06,-0.61 0.03,-0.05 0.08,-0.32 0.12,-0.59 0.07,-0.43 0.07,-0.53 0.04,-0.78 -0.07,-0.53 -0.22,-0.84 -0.47,-1.04 -0.07,-0.05 -0.14,-0.15 -0.16,-0.21 -0.16,-0.5 -1.26,-0.61 -2.38,-0.24 -0.43,0.14 -0.71,0.31 -1.01,0.61 -0.23,0.23 -0.27,0.34 -0.23,0.62 0.03,0.25 0.12,0.4 0.28,0.47 0.16,0.08 0.21,0.19 0.18,0.42 -0.02,0.14 -0.01,0.2 0.07,0.36 0.09,0.18 0.09,0.19 0.05,0.46 -0.05,0.33 -0.03,0.42 0.09,0.45 0.12,0.03 0.18,0.08 0.18,0.15 0,0.03 0.04,0.14 0.08,0.23 0.05,0.09 0.11,0.27 0.14,0.4 0.1,0.37 0.21,0.43 0.67,0.37 0.22,-0.03 0.31,-0.03 0.38,0 0.17,0.08 0.1,0.16 -0.19,0.24 -0.15,0.04 -0.37,0.18 -0.66,0.42 -0.15,0.13 -0.31,0.25 -0.35,0.28 -0.04,0.03 -0.1,0.12 -0.12,0.2 -0.08,0.31 -0.2,0.93 -0.24,1.25 -0.04,0.35 -0.26,1.21 -0.4,1.56 -0.05,0.12 -0.14,0.47 -0.21,0.79 -0.07,0.32 -0.16,0.64 -0.2,0.72 -0.12,0.24 -2.16026,2.600129 -2.24026,2.600129 -0.03,0 -0.03,-20.37000336 0,-20.39000336 h 33.90065 V 8.7901946 h -21.46029 v 6.5593904 h 19.61944 v 8.13089 h -19.61944 v 6.599892 h 21.46029 v 8.879175 h -23.79039 z m -39.64,0.03 c -1.69,-0.14 -2.85,-0.53 -3.81,-1.29 -1.19,-0.94 -1.9,-2.39 -2.14,-4.38 -0.05,-0.39 -0.05,-1.07 -0.04,-5.13 l 0.01,-4.67 11.09,0.03 c 0.02,0.02 0.03,0.49 0.02,1.04 -0.01,1.06 0.01,1.22 0.17,1.77 0.11,0.39 0.45,1.08 0.68,1.38 0.83,1.09 1.95,1.68 3.27,1.73 1.24,0.05 2.3,-0.37 3.19,-1.26 0.64,-0.65 1.04,-1.43 1.21,-2.34 0.15,-0.85 0.14,-6.63 0.16,-9.95 0.05,-5.27 0.01,11.81 0.01,-15.8 l 13.04036,1.2564e-4 V 22.629921 c 0.03,0.04 0.0696,0.05008 -0.0404,0.07008 -0.24,0.04 -0.43,0.13 -0.54,0.25 l -0.11,0.12 -1.27,0.01 c -0.74,0.01 -1.34,0.03 -1.43,0.05 -0.19,0.04 -0.2,0.04 -0.66,-0.27 l -0.29,-0.2 -0.22,-0.42 c -0.23,-0.46 -0.48,-0.84 -0.73,-1.14 -0.09,-0.1 -0.18,-0.24 -0.19,-0.31 -0.05,-0.17 0.01,-0.34 0.13,-0.39 0.24,-0.1 0.49,-0.5 0.62,-0.97 0.08,-0.29 0.07,-0.39 -0.07,-0.81 -0.1,-0.29 -0.13,-0.45 -0.14,-0.72 -0.02,-0.45 -0.09,-0.69 -0.24,-0.92 -0.33,-0.48 -0.93,-0.76 -1.62,-0.76 -0.55,0 -0.79,0.09 -1.11,0.39 -0.13,0.13 -0.31,0.28 -0.39,0.34 -0.38,0.26 -0.54,0.79 -0.4,1.33 0.12,0.47 0.24,0.68 0.53,0.99 0.15,0.15 0.32,0.36 0.38,0.45 0.06,0.1 0.19,0.25 0.27,0.34 0.15,0.16 0.16,0.18 0.14,0.34 -0.01,0.12 -0.04,0.2 -0.09,0.25 -0.07,0.07 -0.08,0.07 -0.17,0.02 -0.31,-0.2 -0.38,-0.21 -0.86,-0.19 -0.36,0.02 -0.57,0.05 -0.96,0.15 -0.58,0.14 -0.74,0.2 -0.9,0.32 -0.27,0.2 -0.4,0.55 -0.5,1.31 -0.04,0.29 -0.09,0.7 -0.12,0.9 -0.12,0.86 0,2.37 0.25,3.2 0.06,0.21 0.07,0.21 0.19,0.2 0.11,-0.01 0.14,0.01 0.27,0.16 0.14,0.16 0.15,0.17 0.44,0.21 0.32,0.05 0.92,0.02 1,-0.04 0.02,-0.02 0.16,-0.05 0.31,-0.06 0.2,-0.02 0.28,-0.04 0.35,-0.11 0.14,-0.13 0.16,-0.05 0.06,0.26 -0.11,0.35 -0.17,0.78 -0.23,1.54 -0.04,0.65 -0.05,0.61 0.16,0.74 0.07,0.04 0.11,0.29 0.12,0.7 0,0.15 0.01,0.3 0.03,0.32 0.01,0.02 0.08,0.06 0.14,0.08 0.1,0.04 0.12,0.07 0.17,0.31 0.05,0.22 0.06,0.4 0.06,1.09 -0.01,0.73 -0.02,0.86 -0.09,1.19 -0.1,0.41 -0.2,1.2 -0.2,1.53 0,0.31 0.11,0.8 0.31,1.44 0.2,0.63 0.27,0.88 0.32,1.18 0.03,0.2 0.03,0.23 -0.06,0.4 -0.08,0.15 -0.1,0.24 -0.11,0.5 -0.01,0.18 0,0.38 0.02,0.46 0.03,0.13 0.04,0.14 0.3,0.25 0.15,0.06 0.28,0.12 0.29,0.13 z m 22.97,-0.01 c 0,-0.02 0.02,-0.04 0.04,-0.06 0.02,-0.01 0.04,-0.01 0.04,0.01 0,0.02 -0.02,0.04 -0.04,0.06 -0.02,0.01 -0.04,0.01 -0.04,-0.01 z m 0.05,-0.4 c -0.02,-0.07 0,-0.11 0.05,-0.17 0.11,-0.12 0.15,-0.22 0.15,-0.37 0,-0.29 -0.09,-0.36 -0.58,-0.38 -0.3,-0.02 -0.39,-0.04 -0.65,-0.15 -0.16,-0.07 -0.42,-0.19 -0.58,-0.25 -0.33,-0.14 -0.4,-0.22 -0.52,-0.59 -0.08,-0.26 -0.09,-0.36 -0.07,-2.35 v -1 c -0.01,-0.23 0,-0.28 0.09,-0.4 0.14,-0.2 0.23,-0.48 0.37,-1.12 0.13,-0.61 0.19,-0.83 0.29,-1.04 0.06,-0.11 0.08,-0.13 0.23,-0.15 0.28,-0.04 0.55,-0.14 0.56,-0.22 0.01,-0.04 0.04,-0.15 0.06,-0.25 l 0.05,-0.18 0.45,-0.27 c 0.25,-0.15 0.45,-0.29 0.46,-0.31 0.02,-0.31 -0.02,-1.05 -0.05,-1.26 -0.03,-0.16 -0.06,-0.69 -0.07,-1.26 -0.01,-0.54 -0.04,-1.15 -0.06,-1.35 -0.02,-0.2 -0.04,-0.42 -0.04,-0.49 0,-0.12 0,-0.12 0.12,-0.11 0.07,0.01 0.23,-0.01 0.37,-0.03 0.25,-0.04 0.62,-0.08 1.5,-0.14 0.29,-0.02 0.55,-0.04 0.57,-0.05 0.02,-0.01 0.07,-0.09 0.11,-0.17 0.09,-0.2 0.16,-0.24 0.37,-0.2 0.12,0.02 0.2,0.02 0.29,-0.01 0.07,-0.03 0.21,-0.05 0.31,-0.07 0.18,-0.02 0.12036,-0.02009 0.0604,0.03991 l -4e-5,4.150495 c -0.01,3.44 -0.0404,4.1796 -0.0904,4.5996 -0.03,0.28 -0.07,0.7 -0.09,0.94 -0.12,1.42 -0.6,2.53 -1.43,3.36 -0.5,0.5 -1.17,0.91 -1.86,1.15 -0.13,0.04 -0.25,0.1 -0.29,0.13 -0.05,0.05 -0.06,0.04 -0.08,-0.04 z m 4.43,-14.31 c 0.01,-0.01 0.06,-0.04 0.12,-0.08 l 0.1,-0.06 -0.07,0.08 c -0.04,0.04 -0.09,0.08 -0.12,0.08 -0.03,0 -0.05,0 -0.04,-0.01 z m 0.27,-0.24 c 0.02,-0.02 0.05,-0.03 0.06,-0.02 0.01,0.01 -0.01,0.03 -0.04,0.04 -0.05,0.02 -0.05,0.02 -0.02,-0.02 z m 0.24,-0.14 c 0.04,-0.04 0.08,-0.07 0.09,-0.07 0.01,0.01 -0.03,0.05 -0.08,0.08 l -0.09,0.07 z m 0.2,-0.1 c 0.01,-0.02 0.04,-0.04 0.06,-0.04 0.02,0 0.03,0.02 0.01,0.04 -0.01,0.02 -0.04,0.04 -0.06,0.04 -0.02,0 -0.03,-0.02 -0.01,-0.04 z m 0.79,-1.34 c 0,-0.01 0.03,-0.03 0.06,-0.06 0.06,-0.04 0.06,-0.04 0.01,0.01 -0.05,0.06 -0.07,0.08 -0.07,0.05 z m -1.64,-0.14 c 0.05,-0.05 0.09,-0.09 0.1,-0.09 0.01,0 -0.02,0.04 -0.06,0.09 -0.05,0.05 -0.09,0.09 -0.1,0.09 -0.01,0 0.02,-0.04 0.06,-0.09 z m 0.55,-0.37 c 0.02,-0.02 0.05,-0.03 0.06,-0.02 0.01,0.01 -0.01,0.03 -0.04,0.04 -0.05,0.02 -0.05,0.02 -0.02,-0.02 z m 0.41,-0.28 c 0.03,-0.04 0.07,-0.07 0.08,-0.07 0.01,0 -0.01,0.03 -0.05,0.07 -0.03,0.04 -0.07,0.07 -0.08,0.07 -0.01,0 0.01,-0.03 0.05,-0.07 z m 0.86,-0.93 c 0.07,-0.07 0.13,-0.12 0.14,-0.12 0.01,0 -0.04,0.06 -0.1,0.12 -0.07,0.07 -0.13,0.12 -0.14,0.12 -0.01,0 0.04,-0.06 0.1,-0.12 z"
     style="fill:#003cc5;fill-opacity:1;stroke:none;stroke-width:1.01256;stroke-linecap:butt;stroke-linejoin:round;stroke-miterlimit:4;stroke-dasharray:none;stroke-opacity:1;paint-order:stroke markers fill"
     id="path2"
     sodipodi:nodetypes="ccccccccccccccccccscscccscccccccccscssccccccccccscscscscccccccccsssscssccscccccccccccsccccccccscccscssccccccscccsssccccccccccccccccccccccccccccccsccccccccsccccscccccccsccccccccccccccccccccccsccccccccscscsccscccccccccccccscccsscccsccccccccsccccscccssscsccscccscscscsccscscsccscccscscsssss" />
  <path
     d="m 51.725769,39.46 c -2.08,-0.11 -3.84,-0.43 -5.46,-1 -1.26,-0.44 -2.53,-1.09 -3.53,-1.81 -0.81,-0.58 -1.85,-1.53 -2.51,-2.29 -1.87,-2.17 -2.94,-4.72 -3.23,-7.72 -0.02,-0.2 -0.05,-0.74 -0.06,-1.19 -0.08,-3.2 0.7,-6.11 2.27,-8.47 0.57,-0.85 0.98,-1.35 1.79,-2.16 0.81,-0.81 1.35,-1.25 2.17,-1.79 2.57,-1.69 5.82,-2.56 9.63,-2.56 5.58,0 9.84,1.66 12.67,4.93 1.87,2.17 2.92,4.67 3.26,7.77 0.07,0.68 0.09,2.6 0.02,3.27 -0.3,3.07 -1.24,5.45 -3.01,7.66 -0.41,0.51 -1.47,1.57 -1.97,1.98 -2.3,1.85 -5.08,2.92 -8.49,3.27 -1.06,0.11 -2.59,0.15 -3.55,0.1 z m 2.18,-7.26 c 0.96,-0.2 1.66,-0.59 2.38,-1.3 0.74,-0.73 1.16,-1.52 1.47,-2.73 0.21,-0.84 0.31,-1.64 0.34,-2.82 0.06,-2.34 -0.34,-4.15 -1.2,-5.45 -0.21,-0.32 -0.82,-0.95 -1.15,-1.2 -0.55,-0.42 -1.15,-0.69 -1.81,-0.83 -0.52,-0.11 -1.5,-0.11 -2.01,0 -0.7,0.15 -1.21,0.37 -1.76,0.74 -1.79,1.23 -2.63,3.47 -2.54,6.8 0.06,2.4 0.56,4.03 1.59,5.21 0.81,0.93 1.86,1.48 3.12,1.64 0.3,0.04 1.25,-0.01 1.58,-0.08 z m 35.13,7.25 c -0.73,-0.07 -0.94,-0.09 -1.29,-0.15 -0.94,-0.16 -1.87,-0.46 -2.73,-0.87 -0.93,-0.45 -1.58,-0.93 -2.58,-1.94 -0.37,-0.37 -0.85,-0.89 -1.08,-1.16 -0.23,-0.27 -0.429673,-0.5 -0.439673,-0.5 v 3.999934 H 70.925769 V 0.55 h 10.7 l 1.35e-4,13.170369 c 0.01,0.03 0.199865,-0.09037 0.449865,-0.320369 1.6,-1.49 3.42,-2.4 5.54,-2.75 0.8,-0.13 1.18,-0.16 2.15,-0.16 1.43,0 2.47,0.15 3.66,0.53 2.11,0.67 4.01,2.05 5.41,3.91 1.180001,1.58 2.000001,3.64 2.380001,5.98 0.2,1.26 0.26,2.11 0.26,3.66 0,1.31 -0.03,1.85 -0.14,2.83 -0.42,3.66 -1.790001,6.85 -3.810001,8.92 -2.02,2.07 -4.79,3.18 -7.83,3.15 -0.3,0 -0.6,-0.01 -0.66,-0.02 z m -2.06,-7.83 c 0.83,-0.13 1.53,-0.47 2.16,-1.08 0.77,-0.74 1.21,-1.62 1.48,-2.95 0.27,-1.35 0.32,-3.35 0.12,-4.68 -0.22,-1.44 -0.63,-2.42 -1.38,-3.22 -0.54,-0.58 -1.21,-0.99 -1.91,-1.17 -0.31,-0.08 -0.41,-0.09 -0.96,-0.09 -0.88,0 -1.51,0.14 -2.17,0.49 -1.27,0.67 -2.12,1.88 -2.49,3.55 -0.18,0.8 -0.21,1.18 -0.21,2.43 0,1.73 0.16,2.81 0.57,3.87 0.8,2.02 2.73,3.17 4.8,2.85 z m 30.960001,7.82 c -3.15,-0.16 -5.55,-0.72 -7.41,-1.72 -2.67,-1.44 -4.91,-4.12 -6.03,-7.21 -0.86,-2.38 -1.12,-5.45 -0.68,-8.25 0.46,-2.94 1.67,-5.41 3.66,-7.45 2.09,-2.14 4.68,-3.45 7.96,-4.03 1.32,-0.23 2.22,-0.3 4.02,-0.3 1.93,0 3.03,0.08 4.58,0.33 2.51,0.4 4.47,1.17 6.24,2.42 1.02,0.72 2.01,1.72 2.77,2.77 0.8,1.11 1.46,2.49 1.88,3.87 0.58,1.91 0.87,4.32 0.84,6.88 l -0.01,0.84 -21.3,0.05 c -0.04,0.04 0.09,0.83 0.2,1.32 0.19,0.78 0.48,1.5 0.84,2.04 0.26,0.4 0.91,1.04 1.33,1.33 1.2,0.81 2.74,1.07 4.31,0.73 0.69,-0.15 1.52,-0.5 2.02,-0.86 0.24,-0.17 1.04,-0.95 1.36,-1.32 l 0.17,-0.2 10.44,0.96 c 0.03,0.03 -0.02,0.11 -0.39,0.71 -1.59,2.53 -3.49,4.36 -5.67,5.44 -1.78,0.88 -3.92,1.38 -6.85,1.59 -0.85,0.06 -3.44,0.09 -4.27,0.05 z m 6.97,-17.12 c -0.02,-0.3 -0.14,-1.03 -0.25,-1.48 -0.45,-1.83 -1.27,-2.95 -2.63,-3.59 -0.59,-0.28 -1.24,-0.43 -2.03,-0.46 -1.51,-0.07 -2.74,0.38 -3.76,1.35 -0.79,0.76 -1.22,1.54 -1.53,2.75 -0.14,0.54 -0.3,1.5 -0.26,1.58 l 10.46,0.03 z M -1.0642308,38.829934 V 0.55 H 10.735769 l 0.05,14.37 12.4,-14.37005205 h 15.67 L 25.045769,15.03 l 14.46,23.799934 h -14.55 l -8.07,-15.639934 -6.12,6.36 -0.04,9.279934 z M 151.39577,21.41 c -1.66,-1.75 -2.69,-3.98 -3.04,-6.54 -0.09,-0.64 -0.09,-2.13 0,-2.76 0.27,-1.99 0.94,-3.77 2,-5.27 0.11,-0.15 0.19,-0.29 0.17,-0.31 -0.03,-0.05 -0.87,-0.04 -1.35,0.02 -1.46,0.19 -2.69,0.75 -3.83,1.76 -0.14,0.12 -0.28,0.21 -0.28,0.21 l -3.22,-3.28 c 0,0 0.63,-0.63 1.05,-0.95 1.66,-1.29 3.49,-2.06 5.67,-2.37 0.67,-0.1 2.42,-0.09 3.1,0.02 1.09,0.17 2.11,0.45 3.03,0.85 l 0.31,0.13 0.31,-0.13 c 0.92,-0.4 1.93,-0.69 3.03,-0.85 0.68,-0.1 2.43,-0.11 3.1,-0.02 2.16,0.31 4.02,1.08 5.66,2.36 0.45,0.35 1.06,0.96 1.06,0.96 l -3.22,3.28 c 0,0 -0.14,-0.08 -0.27,-0.2 -1.14,-1.01 -2.39,-1.58 -3.87,-1.78 -0.47,-0.06 -1.3,-0.07 -1.34,-0.02 -0.01,0.02 0.07,0.16 0.17,0.31 1.05,1.5 1.73,3.28 2,5.27 0.08,0.56 0.09,2.09 0.02,2.62 -0.23,1.81 -0.75,3.34 -1.62,4.79 -0.41,0.69 -1.1,1.58 -1.56,2.03 l -0.18,0.17 -3.3,-3.2 -3.3,3.18 -9.7e-4,-2.41e-4 z m 3.92,-3.33 c 0.73,-0.86 1.22,-1.78 1.49,-2.81 0.16,-0.61 0.23,-1.12 0.23,-1.78 0,-1.42 -0.4,-2.73 -1.18,-3.9 -0.32,-0.48 -0.77,-1 -0.86,-1 -0.17,0 -0.96,1.07 -1.31,1.77 -0.75,1.49 -0.93,3.23 -0.52,4.86 0.22,0.86 0.66,1.79 1.2,2.48 0.32,0.41 0.57,0.68 0.63,0.68 0.04,0 0.17,-0.12 0.32,-0.3 z"
     style="fill:#be0101;fill-opacity:1;stroke:url(#linearGradient15951);stroke-width:1.01256;stroke-linecap:butt;stroke-linejoin:round;stroke-miterlimit:4;stroke-dasharray:none;stroke-opacity:1;paint-order:markers stroke fill"
     id="path4"
     sodipodi:nodetypes="cccccccscsccccccccccccccccccccccccccsccccccccscccscsccccccccsccscccccccccscccccccccccccccccccccccccccccccccccccccccccccccccccccccccccccccccccccccccccccssscccsc" />
</svg>
