<svg xmlns="http://www.w3.org/2000/svg" width="250" height="39" viewBox="0 0 250 39.49"><path d="m226.96 38.98c-0.01-0.01-0.02-6.76-0.02-14.99 0-11.59-0.01-14.97-0.04-15.01-0.03-0.03-1.29-0.04-5.44-0.04h-5.4l0.01-4.4 0.01-4.4 16.96-0.01 16.96-0.01V4.53 8.94l-5.31 0.01-5.31 0.01V23.97 38.99l-6.2 0.01c-3.41 0.01-6.21 0-6.22-0.01zm-47.46-0.05c-0.01-0.02-0.02-3.8-0.01-8.4 0.01-7 0.01-8.36-0.03-8.39-0.04-0.02-0.03-0.04 0.03-0.09 0.1-0.07 0.14-0.05 0.4 0.22 0.14 0.14 0.19 0.17 0.26 0.16 0.04-0.01 0.26-0.19 0.47-0.39 0.53-0.5 0.95-0.88 1.33-1.2 0.17-0.14 0.45-0.38 0.62-0.51 0.17-0.14 0.32-0.25 0.34-0.25 0.02 0 0.03 0.06 0.02 0.17-0.01 0.09-0.03 0.36-0.05 0.6-0.02 0.24-0.06 0.68-0.09 0.99l-0.06 0.55 0.13 0.21c0.07 0.12 0.13 0.23 0.13 0.25 0 0.02-0.04 0.12-0.09 0.21-0.11 0.22-0.11 0.43 0 0.89 0.1 0.41 0.12 0.55 0.16 1.29 0.02 0.35 0.06 0.66 0.1 0.82 0.12 0.44 0.24 1.28 0.3 1.99 0.07 0.85 0.14 1.35 0.23 1.64 0.08 0.24 0.1 0.56 0.17 2.03 0.03 0.77 0.21 3.09 0.29 3.73 0.02 0.19 0.05 0.6 0.05 0.9 0.01 0.3 0.03 0.58 0.05 0.62 0.02 0.04 0.1 0.08 0.18 0.11 0.08 0.02 0.14 0.05 0.14 0.06 0 0.02-0.22 0.14-0.48 0.27l-0.48 0.24-0.49 0.02c-0.53 0.02-0.65 0.05-0.74 0.19-0.08 0.12-0.1 0.46-0.05 0.63 0.04 0.11 0.07 0.15 0.18 0.18 0.24 0.08 0.86 0.12 1.25 0.08 0.63-0.06 0.71-0.08 0.9-0.17l0.18-0.09 0.21 0.11c0.24 0.13 0.39 0.14 0.91 0.08 0.4-0.05 0.74-0.15 0.85-0.26 0.12-0.12 0.14-0.26 0.07-0.56-0.07-0.31-0.05-0.44 0.08-0.44 0.12 0 0.14 0.08 0.17 0.51 0.01 0.2 0.03 0.38 0.04 0.41 0.01 0.03 0.08 0.07 0.15 0.1 0.2 0.07 0.37 0.2 0.45 0.34 0.04 0.07 0.08 0.15 0.08 0.16 0 0.01-1.87 0.02-4.16 0.02-3.12 0-4.17-0.01-4.19-0.04zm10.29-0.08c0.16-0.16 0.19-0.31 0.11-0.53-0.05-0.12-0.12-0.21-0.34-0.39-0.16-0.13-0.31-0.29-0.35-0.36-0.13-0.26-0.06-0.46 0.18-0.52 0.14-0.04 0.21-0.15 0.16-0.24-0.01-0.02-0.03-0.23-0.04-0.45-0.01-0.23-0.04-0.52-0.07-0.64-0.03-0.12-0.07-0.48-0.09-0.8-0.02-0.32-0.06-0.86-0.09-1.21-0.03-0.35-0.06-0.82-0.06-1.05 0-0.23-0.03-0.7-0.06-1.05-0.1-1.03-0.13-1.63-0.13-2.64 0-0.53-0.01-1.15-0.01-1.38 0-0.23 0.02-0.78 0.04-1.22 0.04-0.7 0.04-0.95-0.01-1.85-0.04-0.77-0.07-1.09-0.11-1.21-0.03-0.09-0.07-0.31-0.09-0.5-0.04-0.39-0.04-0.4 0.18-0.74 0.07-0.12 0.15-0.26 0.16-0.31 0.01-0.06 0.04-0.12 0.05-0.14 0.05-0.07 0.57-1.09 0.74-1.46 0.34-0.75 0.62-1.46 0.66-1.68 0.06-0.34-0.07-0.95-0.33-1.6-0.19-0.46-0.73-1.64-1.05-2.25-0.16-0.31-0.34-0.67-0.4-0.8-0.14-0.31-0.41-0.78-0.51-0.89-0.09-0.09-0.98-0.54-1.26-0.62-0.28-0.09-0.37-0.13-0.37-0.16 0-0.02-0.06-0.1-0.14-0.18-0.17-0.18-0.24-0.3-0.38-0.71-0.12-0.34-0.13-0.47-0.06-0.61 0.03-0.05 0.08-0.32 0.12-0.59 0.07-0.43 0.07-0.53 0.04-0.78-0.07-0.53-0.22-0.84-0.47-1.04-0.07-0.05-0.14-0.15-0.16-0.21-0.16-0.5-1.26-0.61-2.38-0.24-0.43 0.14-0.71 0.31-1.01 0.61-0.23 0.23-0.27 0.34-0.23 0.62 0.03 0.25 0.12 0.4 0.28 0.47 0.16 0.08 0.21 0.19 0.18 0.42-0.02 0.14-0.01 0.2 0.07 0.36 0.09 0.18 0.09 0.19 0.05 0.46-0.05 0.33-0.03 0.42 0.09 0.45 0.12 0.03 0.18 0.08 0.18 0.15 0 0.03 0.04 0.14 0.08 0.23 0.05 0.09 0.11 0.27 0.14 0.4 0.1 0.37 0.21 0.43 0.67 0.37 0.22-0.03 0.31-0.03 0.38 0 0.17 0.08 0.1 0.16-0.19 0.24-0.15 0.04-0.37 0.18-0.66 0.42-0.15 0.13-0.31 0.25-0.35 0.28-0.04 0.03-0.1 0.12-0.12 0.2-0.08 0.31-0.2 0.93-0.24 1.25-0.04 0.35-0.26 1.21-0.4 1.56-0.05 0.12-0.14 0.47-0.21 0.79-0.07 0.32-0.16 0.64-0.2 0.72-0.12 0.24-2.18 2.6-2.26 2.6-0.03 0-0.01-20.34 0.02-20.36C179.55 0.01 187.18 0 196.5 0h16.94l0.01 4.4 0.01 4.4h-10.65c-8.47 0-10.66 0.01-10.71 0.04-0.05 0.04-0.06 0.35-0.1 3.26-0.02 1.77-0.03 3.23-0.02 3.26 0.02 0.05 1.23 0.05 9.82 0.05h9.8v4.01 4.01h-9.81c-8.92 0-9.81 0.01-9.83 0.06-0.01 0.03-0.02 1.52-0.02 3.3 0 2.54 0.01 3.26 0.04 3.3 0.04 0.06 0.73 0.06 10.72 0.07l10.67 0.01v4.39 4.39l-11.86 0.01-11.86 0.01zm-39.64 0.03c-1.69-0.14-2.85-0.53-3.81-1.29-1.19-0.94-1.9-2.39-2.14-4.38-0.05-0.39-0.05-1.07-0.04-5.13l0.01-4.67 5.53-0.01c4.4-0.01 5.53 0 5.56 0.04 0.02 0.02 0.03 0.49 0.02 1.04-0.01 1.06 0.01 1.22 0.17 1.77 0.11 0.39 0.45 1.08 0.68 1.38 0.83 1.09 1.95 1.68 3.27 1.73 1.24 0.05 2.3-0.37 3.19-1.26 0.64-0.65 1.04-1.43 1.21-2.34 0.15-0.85 0.14-6.63 0.16-9.95 0.05-5.27 0.01 11.81 0.01-15.8l6.52 0.01 6.52 0.01 0.01 11.28c0.01 7.96 0.02 11.3 0.05 11.33 0.03 0.04 0.01 0.05-0.1 0.07-0.24 0.04-0.43 0.13-0.54 0.25l-0.11 0.12-1.27 0.01c-0.74 0.01-1.34 0.03-1.43 0.05-0.19 0.04-0.2 0.04-0.66-0.27l-0.29-0.2-0.22-0.42c-0.23-0.46-0.48-0.84-0.73-1.14-0.09-0.1-0.18-0.24-0.19-0.31-0.05-0.17 0.01-0.34 0.13-0.39 0.24-0.1 0.49-0.5 0.62-0.97 0.08-0.29 0.07-0.39-0.07-0.81-0.1-0.29-0.13-0.45-0.14-0.72-0.02-0.45-0.09-0.69-0.24-0.92-0.33-0.48-0.93-0.76-1.62-0.76-0.55 0-0.79 0.09-1.11 0.39-0.13 0.13-0.31 0.28-0.39 0.34-0.38 0.26-0.54 0.79-0.4 1.33 0.12 0.47 0.24 0.68 0.53 0.99 0.15 0.15 0.32 0.36 0.38 0.45 0.06 0.1 0.19 0.25 0.27 0.34 0.15 0.16 0.16 0.18 0.14 0.34-0.01 0.12-0.04 0.2-0.09 0.25-0.07 0.07-0.08 0.07-0.17 0.02-0.31-0.2-0.38-0.21-0.86-0.19-0.36 0.02-0.57 0.05-0.96 0.15-0.58 0.14-0.74 0.2-0.9 0.32-0.27 0.2-0.4 0.55-0.5 1.31-0.04 0.29-0.09 0.7-0.12 0.9-0.12 0.86 0 2.37 0.25 3.2 0.06 0.21 0.07 0.21 0.19 0.2 0.11-0.01 0.14 0.01 0.27 0.16 0.14 0.16 0.15 0.17 0.44 0.21 0.32 0.05 0.92 0.02 1-0.04 0.02-0.02 0.16-0.05 0.31-0.06 0.2-0.02 0.28-0.04 0.35-0.11 0.14-0.13 0.16-0.05 0.06 0.26-0.11 0.35-0.17 0.78-0.23 1.54-0.04 0.65-0.05 0.61 0.16 0.74 0.07 0.04 0.11 0.29 0.12 0.7 0 0.15 0.01 0.3 0.03 0.32 0.01 0.02 0.08 0.06 0.14 0.08 0.1 0.04 0.12 0.07 0.17 0.31 0.05 0.22 0.06 0.4 0.06 1.09-0.01 0.73-0.02 0.86-0.09 1.19-0.1 0.41-0.2 1.2-0.2 1.53 0 0.31 0.11 0.8 0.31 1.44 0.2 0.63 0.27 0.88 0.32 1.18 0.03 0.2 0.03 0.23-0.06 0.4-0.08 0.15-0.1 0.24-0.11 0.5-0.01 0.18 0 0.38 0.02 0.46 0.03 0.13 0.04 0.14 0.3 0.25 0.15 0.06 0.28 0.12 0.29 0.13 0.02 0.02-19.69 0.02-19.95 0zm22.97-0.01c0-0.02 0.02-0.04 0.04-0.06 0.02-0.01 0.04-0.01 0.04 0.01 0 0.02-0.02 0.04-0.04 0.06-0.02 0.01-0.04 0.01-0.04-0.01zm0.05-0.4c-0.02-0.07 0-0.11 0.05-0.17 0.11-0.12 0.15-0.22 0.15-0.37 0-0.29-0.09-0.36-0.58-0.38-0.3-0.02-0.39-0.04-0.65-0.15-0.16-0.07-0.42-0.19-0.58-0.25-0.33-0.14-0.4-0.22-0.52-0.59-0.08-0.26-0.09-0.36-0.07-2.35 0-0.4 0-0.85 0-1-0.01-0.23 0-0.28 0.09-0.4 0.14-0.2 0.23-0.48 0.37-1.12 0.13-0.61 0.19-0.83 0.29-1.04 0.06-0.11 0.08-0.13 0.23-0.15 0.28-0.04 0.55-0.14 0.56-0.22 0.01-0.04 0.04-0.15 0.06-0.25l0.05-0.18 0.45-0.27c0.25-0.15 0.45-0.29 0.46-0.31 0.02-0.31-0.02-1.05-0.05-1.26-0.03-0.16-0.06-0.69-0.07-1.26-0.01-0.54-0.04-1.15-0.06-1.35-0.02-0.2-0.04-0.42-0.04-0.49 0-0.12 0-0.12 0.12-0.11 0.07 0.01 0.23-0.01 0.37-0.03 0.25-0.04 0.62-0.08 1.5-0.14 0.29-0.02 0.55-0.04 0.57-0.05 0.02-0.01 0.07-0.09 0.11-0.17 0.09-0.2 0.16-0.24 0.37-0.2 0.12 0.02 0.2 0.02 0.29-0.01 0.07-0.03 0.21-0.05 0.31-0.07 0.18-0.02 0.18-0.02 0.12 0.04-0.07 0.06-0.07 0.1-0.08 4.15-0.01 3.44-0.02 4.18-0.07 4.6-0.03 0.28-0.07 0.7-0.09 0.94-0.12 1.42-0.6 2.53-1.43 3.36-0.5 0.5-1.17 0.91-1.86 1.15-0.13 0.04-0.25 0.1-0.29 0.13-0.05 0.05-0.06 0.04-0.08-0.04zm4.43-14.31c0.01-0.01 0.06-0.04 0.12-0.08l0.1-0.06-0.07 0.08c-0.04 0.04-0.09 0.08-0.12 0.08-0.03 0-0.05 0-0.04-0.01zm0.27-0.24c0.02-0.02 0.05-0.03 0.06-0.02 0.01 0.01-0.01 0.03-0.04 0.04-0.05 0.02-0.05 0.02-0.02-0.02zm0.24-0.14c0.04-0.04 0.08-0.07 0.09-0.07 0.01 0.01-0.03 0.05-0.08 0.08l-0.09 0.07zm0.2-0.1c0.01-0.02 0.04-0.04 0.06-0.04 0.02 0 0.03 0.02 0.01 0.04-0.01 0.02-0.04 0.04-0.06 0.04-0.02 0-0.03-0.02-0.01-0.04zm0.79-1.34c0-0.01 0.03-0.03 0.06-0.06 0.06-0.04 0.06-0.04 0.01 0.01-0.05 0.06-0.07 0.08-0.07 0.05zm-1.64-0.14c0.05-0.05 0.09-0.09 0.1-0.09 0.01 0-0.02 0.04-0.06 0.09-0.05 0.05-0.09 0.09-0.1 0.09-0.01 0 0.02-0.04 0.06-0.09zm0.55-0.37c0.02-0.02 0.05-0.03 0.06-0.02 0.01 0.01-0.01 0.03-0.04 0.04-0.05 0.02-0.05 0.02-0.02-0.02zm0.41-0.28c0.03-0.04 0.07-0.07 0.08-0.07 0.01 0-0.01 0.03-0.05 0.07-0.03 0.04-0.07 0.07-0.08 0.07-0.01 0 0.01-0.03 0.05-0.07zm0.86-0.93c0.07-0.07 0.13-0.12 0.14-0.12 0.01 0-0.04 0.06-0.1 0.12-0.07 0.07-0.13 0.12-0.14 0.12-0.01 0 0.04-0.06 0.1-0.12z" style="fill:#3c6dd0;stroke-width:0.03"/><path d="m52.8 39.47c-2.08-0.11-3.84-0.43-5.46-1-1.26-0.44-2.53-1.09-3.53-1.81-0.81-0.58-1.85-1.53-2.51-2.29-1.87-2.17-2.94-4.72-3.23-7.72-0.02-0.2-0.05-0.74-0.06-1.19-0.08-3.2 0.7-6.11 2.27-8.47 0.57-0.85 0.98-1.35 1.79-2.16 0.81-0.81 1.35-1.25 2.17-1.79 2.57-1.69 5.82-2.56 9.63-2.56 5.58 0 9.84 1.66 12.67 4.93 1.87 2.17 2.92 4.67 3.26 7.77 0.07 0.68 0.09 2.6 0.02 3.27-0.3 3.07-1.24 5.45-3.01 7.66-0.41 0.51-1.47 1.57-1.97 1.98-2.3 1.85-5.08 2.92-8.49 3.27-1.06 0.11-2.59 0.15-3.55 0.1zm2.18-7.26c0.96-0.2 1.66-0.59 2.38-1.3 0.74-0.73 1.16-1.52 1.47-2.73 0.21-0.84 0.31-1.64 0.34-2.82 0.06-2.34-0.34-4.15-1.2-5.45-0.21-0.32-0.82-0.95-1.15-1.2-0.55-0.42-1.15-0.69-1.81-0.83-0.52-0.11-1.5-0.11-2.01 0-0.7 0.15-1.21 0.37-1.76 0.74-1.79 1.23-2.63 3.47-2.54 6.8 0.06 2.4 0.56 4.03 1.59 5.21 0.81 0.93 1.86 1.48 3.12 1.64 0.3 0.04 1.25-0.01 1.58-0.08zm35.13 7.25c-0.73-0.07-0.94-0.09-1.29-0.15-0.94-0.16-1.87-0.46-2.73-0.87-0.93-0.45-1.58-0.93-2.58-1.94-0.37-0.37-0.85-0.89-1.08-1.16-0.23-0.27-0.43-0.5-0.44-0.5-0.02-0.01-0.03 0.75-0.03 1.96 0 1.08-0.01 1.99-0.03 2.02-0.02 0.03-1.04 0.04-4.98 0.04l-4.95-0.01V19.7 0.56h5.35 5.35l0.01 6.56c0 3.61 0.02 6.58 0.03 6.61 0.01 0.03 0.16-0.09 0.41-0.32 1.6-1.49 3.42-2.4 5.54-2.75 0.8-0.13 1.18-0.16 2.15-0.16 1.43 0 2.47 0.15 3.66 0.53 2.11 0.67 4.01 2.05 5.41 3.91 1.18 1.58 2 3.64 2.38 5.98 0.2 1.26 0.26 2.11 0.26 3.66 0 1.31-0.03 1.85-0.14 2.83-0.42 3.66-1.79 6.85-3.81 8.92-2.02 2.07-4.79 3.18-7.83 3.15-0.3 0-0.6-0.01-0.66-0.02zm-2.06-7.83c0.83-0.13 1.53-0.47 2.16-1.08 0.77-0.74 1.21-1.62 1.48-2.95 0.27-1.35 0.32-3.35 0.12-4.68-0.22-1.44-0.63-2.42-1.38-3.22-0.54-0.58-1.21-0.99-1.91-1.17-0.31-0.08-0.41-0.09-0.96-0.09-0.88 0-1.51 0.14-2.17 0.49-1.27 0.67-2.12 1.88-2.49 3.55-0.18 0.8-0.21 1.18-0.21 2.43 0 1.73 0.16 2.81 0.57 3.87 0.8 2.02 2.73 3.17 4.8 2.85zm30.96 7.82c-3.15-0.16-5.55-0.72-7.41-1.72-2.67-1.44-4.91-4.12-6.03-7.21-0.86-2.38-1.12-5.45-0.68-8.25 0.46-2.94 1.67-5.41 3.66-7.45 2.09-2.14 4.68-3.45 7.96-4.03 1.32-0.23 2.22-0.3 4.02-0.3 1.93 0 3.03 0.08 4.58 0.33 2.51 0.4 4.47 1.17 6.24 2.42 1.02 0.72 2.01 1.72 2.77 2.77 0.8 1.11 1.46 2.49 1.88 3.87 0.58 1.91 0.87 4.32 0.84 6.88l-0.01 0.84-10.64 0.01c-5.85 0.01-10.65 0.02-10.66 0.04-0.04 0.04 0.09 0.83 0.2 1.32 0.19 0.78 0.48 1.5 0.84 2.04 0.26 0.4 0.91 1.04 1.33 1.33 1.2 0.81 2.74 1.07 4.31 0.73 0.69-0.15 1.52-0.5 2.02-0.86 0.24-0.17 1.04-0.95 1.36-1.32l0.17-0.2 5.21 0.47c2.86 0.26 5.22 0.48 5.23 0.49 0.03 0.03-0.02 0.11-0.39 0.71-1.59 2.53-3.49 4.36-5.67 5.44-1.78 0.88-3.92 1.38-6.85 1.59-0.85 0.06-3.44 0.09-4.27 0.05zM125.98 22.33c-0.02-0.3-0.14-1.03-0.25-1.48-0.45-1.83-1.27-2.95-2.63-3.59-0.59-0.28-1.24-0.43-2.03-0.46-1.51-0.07-2.74 0.38-3.76 1.35-0.79 0.76-1.22 1.54-1.53 2.75-0.14 0.54-0.3 1.5-0.26 1.58 0.02 0.04 0.89 0.05 5.24 0.04l5.22-0.01zM0.01 38.82c-0.01-0.02-0.01-8.64-0.01-19.15l0.01-19.11h5.9 5.9l0.01 7.17c0 3.94 0.02 7.18 0.04 7.2 0.02 0.02 2.74-3.14 6.06-7.01 3.32-3.87 6.1-7.12 6.19-7.21l0.15-0.17h7.84c6.51 0 7.83 0.01 7.83 0.05-0.01 0.03-3.12 3.27-6.92 7.21-5.54 5.74-6.9 7.18-6.89 7.24 0.01 0.04 3.27 5.4 7.25 11.92 3.98 6.51 7.22 11.86 7.21 11.87-0.01 0.02-3.22 0.03-7.26 0.03-6.67 0-7.24 0-7.29-0.06-0.03-0.03-1.84-3.56-4.04-7.83-2.19-4.27-4.01-7.77-4.03-7.77-0.02 0-1.13 1.14-2.46 2.54-1.33 1.4-2.7 2.83-3.04 3.18l-0.62 0.64-0.02 4.64-0.02 4.64-5.89 0.01c-4.69 0.01-5.89 0-5.91-0.04zM152.47 21.42c-1.66-1.75-2.69-3.98-3.04-6.54-0.09-0.64-0.09-2.13 0-2.76 0.27-1.99 0.94-3.77 2-5.27 0.11-0.15 0.19-0.29 0.17-0.31-0.03-0.05-0.87-0.04-1.35 0.02-1.46 0.19-2.69 0.75-3.83 1.76-0.14 0.12-0.27 0.22-0.28 0.21-0.06-0.02-3.22-3.24-3.22-3.28 0-0.05 0.63-0.63 1.05-0.95 1.66-1.29 3.49-2.06 5.67-2.37 0.67-0.1 2.42-0.09 3.1 0.02 1.09 0.17 2.11 0.45 3.03 0.85l0.31 0.13 0.31-0.13c0.92-0.4 1.93-0.69 3.03-0.85 0.68-0.1 2.43-0.11 3.1-0.02 2.16 0.31 4.02 1.08 5.66 2.36 0.45 0.35 1.06 0.9 1.06 0.96 0 0.04-3.17 3.26-3.22 3.28-0.02 0.01-0.14-0.08-0.27-0.2-1.14-1.01-2.39-1.58-3.87-1.78-0.47-0.06-1.3-0.07-1.34-0.02-0.01 0.02 0.07 0.16 0.17 0.31 1.05 1.5 1.73 3.28 2 5.27 0.08 0.56 0.09 2.09 0.02 2.62-0.23 1.81-0.75 3.34-1.62 4.79-0.41 0.69-1.1 1.58-1.56 2.03l-0.18 0.17-1.62-1.6c-0.89-0.88-1.64-1.6-1.68-1.6-0.03 0-0.79 0.72-1.67 1.59-0.89 0.88-1.62 1.59-1.63 1.59-0.01 0-0.14-0.13-0.3-0.3zm3.92-3.33c0.73-0.86 1.22-1.78 1.49-2.81 0.16-0.61 0.23-1.12 0.23-1.78 0-1.42-0.4-2.73-1.18-3.9-0.32-0.48-0.77-1-0.86-1-0.17 0-0.96 1.07-1.31 1.77-0.75 1.49-0.93 3.23-0.52 4.86 0.22 0.86 0.66 1.79 1.2 2.48 0.32 0.41 0.57 0.68 0.63 0.68 0.04 0 0.17-0.12 0.32-0.3z" style="fill:#fd0101;stroke-width:0.03"/></svg>
