<?xml version="1.0" standalone="no"?>
<!DOCTYPE svg PUBLIC "-//W3C//DTD SVG 20010904//EN"
 "http://www.w3.org/TR/2001/REC-SVG-20010904/DTD/svg10.dtd">
<svg version="1.0" xmlns="http://www.w3.org/2000/svg"
 width="700.000000pt" height="700.000000pt" viewBox="0 0 700.000000 700.000000"
 preserveAspectRatio="xMidYMid meet">
<metadata>
Created by potrace 1.11, written by Peter Selinger 2001-2013
</metadata>
<g transform="translate(0.000000,700.000000) scale(0.100000,-0.100000)"
fill="#000000" stroke="none">
<path d="M2038 6024 c-2 -1 -34 -5 -73 -9 -38 -3 -81 -8 -95 -10 -14 -2 -54
-9 -90 -14 -543 -87 -1045 -321 -1469 -685 -144 -123 -164 -143 -155 -158 12
-19 826 -838 834 -838 5 0 128 98 181 144 88 79 340 214 499 269 71 25 170 51
235 62 17 2 55 9 85 14 97 17 370 36 370 26 0 -3 -17 -32 -39 -63 -159 -236
-278 -473 -361 -722 -36 -108 -77 -254 -84 -304 -4 -21 -8 -42 -11 -46 -7 -12
-43 -252 -52 -346 -10 -104 -10 -453 -1 -575 7 -81 23 -189 54 -354 22 -123
83 -328 141 -475 138 -351 320 -634 576 -893 68 -69 80 -77 94 -65 9 7 65 60
123 118 549 538 686 670 699 670 12 0 122 -104 421 -396 107 -105 244 -239
304 -298 60 -58 110 -106 113 -106 10 0 190 191 250 265 79 98 188 258 235
345 20 36 47 85 60 110 40 74 125 278 162 390 51 154 101 362 121 505 27 186
32 282 29 515 -1 124 -4 239 -7 255 -3 17 -8 57 -12 90 -7 65 -33 221 -40 245
-2 8 -7 31 -10 50 -3 19 -17 76 -31 125 -74 266 -181 518 -308 728 -22 37 -46
76 -51 85 -20 34 -50 77 -56 82 -3 3 -14 20 -23 37 l-16 33 87 -5 c153 -8 237
-15 283 -25 25 -5 63 -12 85 -15 91 -13 278 -73 393 -125 35 -17 65 -30 68
-30 14 0 232 -140 274 -177 63 -54 175 -143 180 -143 7 0 805 802 829 833 16
20 8 29 -119 137 -35 30 -71 61 -79 68 -7 7 -57 46 -110 86 -330 248 -727 430
-1146 525 -90 20 -172 34 -295 47 -30 3 -84 10 -120 14 -65 8 -467 5 -505 -3
-11 -2 -47 -8 -80 -11 -101 -12 -126 -16 -230 -38 -102 -20 -248 -58 -320 -83
-76 -26 -210 -76 -271 -101 l-61 -26 -64 26 c-149 59 -273 100 -411 137 -148
39 -175 45 -238 55 -19 3 -60 9 -90 14 -30 5 -75 12 -100 14 -25 3 -72 8 -105
12 -56 7 -452 14 -457 8z m1572 -1850 c41 -53 82 -107 90 -122 8 -15 18 -29
21 -32 12 -10 85 -146 122 -228 67 -146 128 -363 143 -507 3 -33 8 -73 10 -90
9 -76 3 -287 -10 -372 -3 -21 -8 -54 -11 -73 -16 -122 -81 -324 -149 -461 -49
-98 -144 -251 -170 -274 -6 -5 -21 -23 -34 -39 -12 -16 -44 -53 -72 -83 l-50
-54 -49 53 c-27 29 -61 69 -77 88 -16 19 -31 37 -35 40 -14 12 -108 160 -140
220 -133 251 -197 513 -198 820 -1 91 1 114 14 240 24 213 123 491 248 695 62
101 185 259 216 278 33 20 42 13 131 -99z"/>
</g>
</svg>
