<svg xmlns="http://www.w3.org/2000/svg" width="64" height="64" viewBox="0 0 64 64"><path d="m28.64 63.65c-0.84-0.45-1.47-1.55-1.47-2.58 0-1.01 0.21-1.42 1.22-2.37 0.73-0.69 0.81-0.85 0.81-1.62 0-0.47-0.06-0.85-0.12-0.85-0.07 0-0.49 0.22-0.94 0.48-0.96 0.56-1.19 0.44-1.22-0.61-0.02-0.69 0-0.72 1.3-1.4 1.25-0.66 1.32-0.73 1.44-1.46 0.2-1.24-0.07-1.25-1.83-0.05-1.81 1.23-1.98 1.2-1.9-0.39l0.05-0.93 1.9-0.93c1.97-0.96 2.25-1.19 2.26-1.9 0-0.63-0.39-0.52-2.2 0.6-0.9 0.56-1.78 1.02-1.94 1.02-0.23 0-0.3-0.2-0.3-0.9 0-0.5 0.1-0.98 0.23-1.09 0.13-0.1 1.06-0.53 2.08-0.96 2.33-0.98 2.42-1.06 2.13-1.95-0.12-0.37-0.34-0.72-0.47-0.77-0.14-0.05-1.23 0.78-2.53 1.93-1.25 1.12-3.15 2.8-4.22 3.75l-1.94 1.72-0.11 1.11c-0.1 0.97-0.2 1.19-0.78 1.72-0.57 0.52-0.81 0.61-1.58 0.61-1.59 0-2.61-1.28-2.25-2.84 0.21-0.91 0.61-1.33 1.58-1.7l0.78-0.3 0.88-3.83c0.48-2.1 1.05-4.52 1.25-5.36 0.45-1.9 0.39-2.13-0.54-1.97-0.38 0.07-0.75 0.18-0.82 0.24-0.07 0.06-0.22 1.07-0.34 2.24-0.12 1.17-0.31 2.22-0.43 2.34-0.35 0.33-1.47 0.65-1.65 0.46-0.1-0.1-0.04-0.78 0.14-1.67 0.17-0.83 0.28-1.67 0.25-1.88-0.05-0.34-0.09-0.35-0.45-0.1-0.29 0.2-0.53 0.82-0.9 2.33-0.28 1.13-0.63 2.17-0.78 2.32-0.15 0.15-0.52 0.27-0.83 0.27-0.54 0-0.56-0.03-0.45-0.59 0.07-0.33 0.17-1.04 0.24-1.59l0.12-1-0.58 0.3c-0.75 0.39-0.96 0.81-0.96 1.93 0 1.15-0.31 1.47-1.05 1.11-0.3-0.14-0.54-0.43-0.58-0.66-0.07-0.51-0.32-0.52-1.1-0.05-0.43 0.26-0.6 0.5-0.6 0.85 0 0.76-0.71 1.84-1.52 2.29-0.58 0.32-0.93 0.39-1.66 0.33-1.15-0.11-1.79-0.57-2.34-1.67-0.62-1.23-0.44-2.18 0.62-3.23 0.93-0.93 1.71-1.07 3.25-0.59 0.57 0.18 0.77 0.15 1.43-0.18 0.42-0.22 0.77-0.48 0.77-0.58 0-0.1-0.37-0.37-0.83-0.59-0.46-0.22-0.83-0.51-0.83-0.63 0-0.12 0.26-0.44 0.57-0.71l0.57-0.48 1.36 0.75 1.36 0.75 0.76-0.39c0.42-0.21 0.73-0.49 0.69-0.61-0.04-0.12-0.81-0.52-1.72-0.89-0.9-0.37-1.67-0.76-1.71-0.87-0.08-0.23 1.37-1.33 1.74-1.33 0.14 0 0.82 0.37 1.52 0.81 2.13 1.37 2.26 1.41 2.97 1.11 0.84-0.35 0.65-0.54-1.64-1.64-1.02-0.49-1.86-0.99-1.86-1.11 0-0.31 1.02-1.03 1.45-1.03 0.2 0 1.17 0.53 2.17 1.19 1 0.65 1.91 1.15 2.03 1.1 0.31-0.12 1.38-1.64 1.38-1.96 0-0.17-1.78-0.88-5.39-2.15C9.34 32.58 9.16 32.53 8.71 32.83 7.55 33.59 6.34 33.49 5.45 32.56 4.07 31.12 5.16 28.65 7.18 28.65c0.58 0 1.05 0.22 2.06 0.95 0.24 0.18 1.14-0.03 4.63-1.04 2.38-0.69 4.77-1.39 5.32-1.55 0.55-0.16 1.03-0.39 1.08-0.53 0.11-0.28-0.8-1.89-1.14-2.02-0.13-0.05-1.14 0.25-2.24 0.66-1.1 0.41-2.15 0.7-2.33 0.65-0.47-0.15-1.33-1.22-1.13-1.41 0.09-0.09 0.9-0.35 1.8-0.57 1.68-0.43 2.06-0.7 1.42-1.05-0.27-0.15-0.9-0.07-2.51 0.29-2.02 0.45-2.18 0.46-2.61 0.18-0.85-0.56-0.61-0.98 0.83-1.4 0.71-0.21 1.34-0.46 1.4-0.56 0.06-0.1-0.16-0.34-0.48-0.54-0.59-0.36-0.6-0.36-1.54 0-1.25 0.48-1.7 0.46-1.84-0.06-0.16-0.61-0.15-0.65 0.27-1.04 0.45-0.42 0.36-0.65-0.4-1.04-0.42-0.22-0.72-0.24-1.34-0.1-2.12 0.48-3.84-1.09-3.6-3.27 0.15-1.34 1.45-2.46 2.86-2.46 1.4 0 2.81 1.24 2.84 2.48 0.01 0.32 0.07 0.72 0.14 0.89 0.13 0.32 1.28 1.26 1.55 1.26 0.08 0 0.15-0.46 0.15-1.02 0-1.21 0.26-1.41 1.15-0.88l0.6 0.35-0.06 1.48c-0.06 1.47-0.06 1.49 0.52 1.98 1.06 0.9 1.18 0.74 1.03-1.35-0.07-1.01-0.08-1.93-0.01-2.03 0.14-0.23 1.86 0.6 1.99 0.96 0.05 0.13 0.02 0.74-0.05 1.35-0.08 0.61-0.15 1.59-0.16 2.17-0.01 0.93 0.04 1.1 0.44 1.36 0.79 0.52 0.9 0.23 0.8-2.08-0.06-1.25-0.02-2.15 0.08-2.22 0.23-0.14 1.58 0.46 1.69 0.76 0.05 0.12-0.04 1.21-0.18 2.41-0.15 1.2-0.23 2.29-0.18 2.42 0.1 0.26 2.08 0.76 2.27 0.58 0.06-0.06-0.42-2.68-1.07-5.81l-1.19-5.7-0.69-0.33c-1.22-0.58-1.77-2.11-1.18-3.28 0.32-0.63 1.37-1.3 2.03-1.3 1.42 0 2.41 1.06 2.36 2.55-0.02 0.48-0.02 0.97-0.01 1.09 0.01 0.19 1.66 1.73 7 6.59 0.64 0.59 1.24 1.06 1.32 1.06 0.08 0 0.28-0.29 0.45-0.64 0.36-0.76 0.42-0.7-1.74-2.34-0.82-0.62-1.46-1.25-1.46-1.43 0-0.62 0.39-1.7 0.61-1.7 0.13 0 0.8 0.58 1.5 1.29 0.7 0.71 1.35 1.24 1.43 1.19 0.45-0.28 0.04-1.02-1.44-2.54-1.48-1.52-1.57-1.67-1.45-2.22 0.24-1.12 0.28-1.12 1.62 0.07 0.58 0.52 1.14 0.89 1.24 0.82 0.31-0.19 0.21-1.18-0.16-1.53-0.19-0.18-0.65-0.56-1.02-0.84-0.37-0.28-0.67-0.64-0.67-0.78 0-0.4 0.82-0.86 1.42-0.79 0.48 0.05 0.53 0 0.58-0.61 0.05-0.55-0.06-0.79-0.6-1.37-0.84-0.89-1.11-1.86-0.83-2.9 0.39-1.45 1.92-2.39 3.43-2.11 0.93 0.17 2.03 1.27 2.21 2.19 0.23 1.23-0.04 1.99-1.04 2.92-0.84 0.78-0.91 0.91-0.91 1.71 0 0.48 0.06 0.87 0.12 0.87 0.07 0 0.49-0.22 0.94-0.48 0.96-0.56 1.19-0.44 1.22 0.61 0.02 0.68-0.02 0.73-1.09 1.29-0.61 0.32-1.21 0.68-1.34 0.8-0.25 0.22-0.33 1.86-0.09 1.86 0.08 0 0.83-0.47 1.67-1.05 1.05-0.72 1.59-0.99 1.72-0.86 0.1 0.1 0.16 0.64 0.13 1.19l-0.06 1-1.99 0.99-1.99 0.99v0.72c0 0.4 0.05 0.72 0.12 0.72 0.07 0 0.9-0.51 1.86-1.12 0.95-0.62 1.88-1.1 2.05-1.06 0.24 0.05 0.33 0.28 0.38 0.94l0.06 0.88-2.23 1.04c-1.49 0.7-2.23 1.14-2.23 1.34 0.01 0.36 0.68 1.87 0.83 1.87 0.06 0 2.16-1.64 4.66-3.65 2.5-2.01 4.67-3.76 4.82-3.88 0.17-0.13 0.3-0.57 0.32-1.07 0.09-2.13 2.46-3.18 3.98-1.77 1.33 1.24 0.79 3.36-1.01 3.98-0.41 0.14-0.8 0.36-0.87 0.5-0.16 0.29-3.11 10.8-3.11 11.07 0 0.1 0.33 0.19 0.73 0.19 0.93 0 1-0.14 1.3-2.59 0.13-1.07 0.32-2.05 0.42-2.17 0.26-0.34 1.59-0.7 1.8-0.49 0.1 0.1 0 0.85-0.27 1.92-0.24 0.96-0.41 1.79-0.36 1.83 0.04 0.04 0.26 0 0.49-0.1 0.32-0.14 0.55-0.65 1.07-2.38 0.58-1.94 0.72-2.22 1.15-2.37 0.93-0.33 1.08-0.11 0.79 1.21-0.42 1.96-0.33 2.15 0.66 1.45 0.44-0.32 0.53-0.54 0.65-1.58 0.07-0.69 0.23-1.26 0.36-1.31 0.43-0.17 1.21 0.27 1.33 0.75 0.22 0.9 1.44 0.32 1.75-0.84 0.11-0.39 0.41-0.98 0.69-1.3 1.75-2.08 5.05-0.95 5.05 1.73 0 2.13-1.81 3.49-3.74 2.82-0.43-0.15-0.93-0.28-1.11-0.28-0.41 0-1.63 0.58-1.63 0.78 0 0.09 0.37 0.38 0.83 0.66 0.46 0.28 0.83 0.59 0.83 0.7 0 0.23-1 1.01-1.3 1.01-0.11 0-0.69-0.33-1.29-0.74-0.6-0.41-1.18-0.74-1.29-0.74-0.26 0-1.67 0.72-1.67 0.85 0 0.05 0.78 0.46 1.74 0.91 0.96 0.44 1.79 0.9 1.86 1 0.12 0.19-1.44 1.31-1.82 1.31-0.1 0-1-0.55-2-1.23-1.73-1.17-1.84-1.22-2.37-1-0.31 0.13-0.56 0.34-0.56 0.48 0 0.14 0.85 0.69 1.89 1.23 1.04 0.54 1.92 1.08 1.95 1.2 0.09 0.31-1.36 1.24-1.66 1.06-0.13-0.08-1.07-0.72-2.07-1.43-1.4-0.99-1.9-1.25-2.12-1.11-0.47 0.3-1.01 1.12-0.91 1.39 0.08 0.22 10.74 4.22 11.24 4.22 0.1 0 0.45-0.17 0.79-0.37 1.29-0.79 2.97-0.2 3.43 1.2 0.29 0.88 0.15 1.6-0.44 2.31-0.89 1.06-2.24 1.1-3.42 0.11-0.31-0.26-0.62-0.47-0.69-0.47-0.39 0.01-11.21 3.14-11.36 3.29-0.17 0.17 0.67 1.7 0.94 1.7 0.06 0 1.1-0.39 2.3-0.86l2.18-0.86 0.64 0.62c0.35 0.34 0.64 0.73 0.64 0.85 0 0.13-0.35 0.33-0.79 0.44-2.92 0.76-3.27 0.95-2.48 1.31 0.37 0.17 0.87 0.11 2.6-0.31l2.14-0.52 0.47 0.44c0.65 0.61 0.59 0.84-0.32 1.1-0.43 0.13-1.08 0.36-1.43 0.5l-0.65 0.27 0.44 0.36c0.55 0.45 1.07 0.45 2.15-0.01 1.19-0.51 1.35-0.48 1.5 0.31 0.1 0.52 0.06 0.73-0.18 0.9-0.41 0.3-0.38 0.57 0.11 0.91 0.32 0.23 0.71 0.27 1.8 0.18 1.72-0.13 2.46 0.2 3.11 1.42 0.53 1 0.47 2.09-0.17 3.03-0.62 0.9-1.46 1.26-2.71 1.16-0.91-0.08-1.1-0.17-1.72-0.84-0.55-0.59-0.73-0.96-0.83-1.68-0.11-0.81-0.22-1-0.83-1.42-0.39-0.27-0.79-0.44-0.9-0.37-0.11 0.07-0.2 0.57-0.2 1.13 0 0.55-0.08 1.01-0.18 1.01-0.1 0-0.48-0.14-0.84-0.32l-0.66-0.32 0.04-1.52c0.04-1.41 0.01-1.55-0.41-1.9-0.49-0.41-1.07-0.66-1.21-0.52-0.05 0.05 0 0.91 0.1 1.91 0.1 1 0.12 1.89 0.03 1.98-0.09 0.09-0.58-0.06-1.11-0.33l-0.95-0.48 0.12-2.26c0.12-2.25 0.12-2.26-0.35-2.7-0.79-0.73-0.9-0.42-0.76 2.12 0.14 2.55 0.15 2.53-1.04 1.92-0.85-0.43-0.85-0.46-0.54-3.53 0.17-1.67 0.16-1.94-0.09-2.12-0.37-0.27-1.98-0.5-2.17-0.31-0.12 0.12 0.48 3.79 1.63 9.91 0.29 1.56 0.34 1.65 1 2.07 0.98 0.62 1.29 1.13 1.29 2.17 0 0.75-0.1 0.99-0.63 1.58-0.59 0.64-0.71 0.69-1.66 0.69-0.92 0-1.09-0.07-1.63-0.61-0.57-0.57-0.6-0.68-0.59-1.89l0.01-1.29-3.93-3.8c-2.16-2.09-4-3.8-4.09-3.8-0.14 0-0.98 1.51-0.98 1.76 0 0.04 0.8 0.72 1.77 1.51 1.51 1.22 1.75 1.49 1.66 1.85-0.22 0.87-0.47 1.37-0.7 1.37-0.13 0-0.8-0.56-1.49-1.25-1.02-1.01-1.29-1.2-1.44-0.97-0.28 0.44-0.24 0.52 0.88 1.73 2.29 2.47 2.14 2.26 2.01 2.98-0.07 0.4-0.23 0.66-0.39 0.66-0.15 0-0.74-0.43-1.32-0.96-1-0.91-1.06-0.93-1.23-0.57-0.29 0.65 0.01 1.26 0.98 2 0.51 0.39 0.93 0.81 0.93 0.93 0 0.12-0.22 0.4-0.48 0.61-0.37 0.29-0.56 0.34-0.84 0.19-0.51-0.27-0.72-0.06-0.72 0.73 0 0.51 0.13 0.82 0.48 1.15 0.71 0.67 1 1.34 1 2.36 0 2.15-2.33 3.5-4.26 2.47zM39.56 46.57c0-0.24-1.38-5.63-1.69-6.59-0.2-0.63-0.43-0.74-1.73-0.83-0.79-0.05-0.85 0.02-1.72 2.07l-0.27 0.64 2.56 2.46c1.41 1.35 2.63 2.46 2.7 2.46 0.08 0 0.14-0.09 0.14-0.21zM25.94 43.93 28.45 41.26 28.07 40.15c-0.21-0.61-0.47-1.19-0.59-1.28-0.22-0.17-2.59 0.14-2.81 0.36-0.1 0.1-1.37 5.35-1.63 6.77-0.08 0.44-0.05 0.6 0.14 0.6 0.14 0 1.38-1.2 2.76-2.67zm6.57-2.9c0.52-1.18 0.94-2.21 0.94-2.29 0-0.24-1.87-2.69-2.05-2.69-0.09 0-0.55 0.58-1.03 1.3l-0.86 1.3 0.61 2.08c0.87 2.99 0.89 3.03 1.2 2.71 0.14-0.14 0.68-1.23 1.2-2.41zm8.9-2.77c0-0.23-2.18-3.39-2.78-4.02-0.29-0.31-0.54-0.4-0.89-0.34-0.27 0.05-0.97 0.14-1.56 0.21-0.75 0.08-1.06 0.2-1.06 0.39 0 0.15 0.29 0.85 0.65 1.56 0.5 1 0.76 1.32 1.16 1.42 3.94 1 4.49 1.1 4.49 0.79zM24.58 37.62c1.07-0.16 2.08-0.34 2.25-0.39 0.38-0.11 1.54-3.02 1.3-3.26-0.09-0.09-0.86-0.14-1.71-0.11l-1.55 0.05-1.53 1.84c-1.6 1.92-1.83 2.39-1.11 2.24 0.23-0.05 1.29-0.22 2.36-0.39zM45.39 33.74c3.5-0.98 4-1.17 3.59-1.39-0.35-0.19-7.09-2.04-7.43-2.04-0.25 0-1.81 1.75-1.81 2.03 0 0.07 0.35 0.65 0.78 1.29 0.91 1.36 0.45 1.35 4.87 0.11zM22.99 32.84c0.36-0.44 0.66-0.96 0.66-1.16-0.01-0.59-1.07-2.11-1.47-2.11-0.44 0-6.02 1.6-6.53 1.87-0.2 0.11-0.32 0.23-0.26 0.28 0.1 0.1 6.34 1.85 6.73 1.89 0.12 0.01 0.52-0.34 0.88-0.78zm17.38-4.18c1.03-1.01 1.81-1.9 1.74-1.97-0.07-0.07-1.26-0.07-2.64 0.01-2.08 0.11-2.57 0.19-2.83 0.47-0.43 0.46-1.41 2.75-1.25 2.92 0.12 0.12 1.46 0.31 2.67 0.38 0.33 0.02 0.91-0.44 2.31-1.81zm-13.27 1.47c0.7 0 1.03-0.08 1.1-0.27 0.1-0.27-0.75-2.41-1.13-2.84-0.39-0.44-5.09-1.58-5.09-1.24 0 0.05 0.67 1.1 1.5 2.33 1.45 2.17 1.51 2.23 2.06 2.12 0.31-0.06 1.01-0.11 1.56-0.11zm5.71-3.37c0.46-0.64 0.83-1.35 0.83-1.61 0-0.56-1.08-4.48-1.31-4.72-0.25-0.27-2.46 4.4-2.33 4.92 0.14 0.53 1.57 2.56 1.8 2.56 0.09 0 0.54-0.52 1-1.15zm6.49-1.84c0.13-0.14 0.5-1.2 0.82-2.38 0.32-1.17 0.74-2.66 0.94-3.3 0.39-1.29 0.45-1.94 0.18-1.85-0.1 0.03-1.48 1.27-3.07 2.74-3.19 2.97-3.12 2.82-2.4 4.51l0.31 0.72 1.49-0.1c0.87-0.06 1.59-0.2 1.73-0.35zm-10.55-1.35c0.35-0.76 0.64-1.5 0.64-1.66 0-0.33-5.16-5.14-5.38-5.01-0.15 0.09-0.03 0.59 0.92 3.88 1.11 3.85 1.06 3.74 1.83 3.94 1.28 0.34 1.31 0.32 1.99-1.16z" style="fill:#8dc6cb;stroke-width:0.2"/></svg>
